<?xml version="1.0" encoding="UTF-8"?>
<!DOCTYPE svg PUBLIC "-//W3C//DTD SVG 1.1//EN" "http://www.w3.org/Graphics/SVG/1.1/DTD/svg11.dtd">
<!-- Creator: CorelDRAW 2021 (64-Bit) -->
<svg xmlns="http://www.w3.org/2000/svg" xml:space="preserve" width="215.9mm" height="279.4mm" version="1.1" style="shape-rendering:geometricPrecision; text-rendering:geometricPrecision; image-rendering:optimizeQuality; fill-rule:evenodd; clip-rule:evenodd"
viewBox="0 0 21590 27940"
 xmlns:xlink="http://www.w3.org/1999/xlink"
 xmlns:xodm="http://www.corel.com/coreldraw/odm/2003">
 <defs>
  <style type="text/css">
   <![CDATA[
    .fil13 {fill:#16202E;fill-rule:nonzero}
    .fil108 {fill:#162D40;fill-rule:nonzero}
    .fil109 {fill:#1D3B54;fill-rule:nonzero}
    .fil84 {fill:#202338;fill-rule:nonzero}
    .fil121 {fill:#252E3B;fill-rule:nonzero}
    .fil105 {fill:#293B57;fill-rule:nonzero}
    .fil7 {fill:#323657;fill-rule:nonzero}
    .fil97 {fill:#354C70;fill-rule:nonzero}
    .fil113 {fill:#366E9C;fill-rule:nonzero}
    .fil95 {fill:#3B3F66;fill-rule:nonzero}
    .fil115 {fill:#3C4145;fill-rule:nonzero}
    .fil102 {fill:#3C5780;fill-rule:nonzero}
    .fil85 {fill:#464240;fill-rule:nonzero}
    .fil5 {fill:#48753A;fill-rule:nonzero}
    .fil15 {fill:#4DA8F2;fill-rule:nonzero}
    .fil123 {fill:#5189DB;fill-rule:nonzero}
    .fil112 {fill:#54281A;fill-rule:nonzero}
    .fil96 {fill:#555C94;fill-rule:nonzero}
    .fil81 {fill:#5599FF;fill-rule:nonzero}
    .fil80 {fill:#569AFF;fill-rule:nonzero}
    .fil79 {fill:#579BFF;fill-rule:nonzero}
    .fil78 {fill:#589BFF;fill-rule:nonzero}
    .fil77 {fill:#599CFF;fill-rule:nonzero}
    .fil76 {fill:#5A9DFF;fill-rule:nonzero}
    .fil75 {fill:#5B9EFF;fill-rule:nonzero}
    .fil114 {fill:#5C544D;fill-rule:nonzero}
    .fil74 {fill:#5C9EFF;fill-rule:nonzero}
    .fil73 {fill:#5D9FFF;fill-rule:nonzero}
    .fil88 {fill:#5E5853;fill-rule:nonzero}
    .fil72 {fill:#5EA0FF;fill-rule:nonzero}
    .fil87 {fill:#5F8CC9;fill-rule:nonzero}
    .fil122 {fill:#5FA0FF;fill-rule:nonzero}
    .fil71 {fill:#5FA1FF;fill-rule:nonzero}
    .fil83 {fill:#6069A8;fill-rule:nonzero}
    .fil70 {fill:#60A2FF;fill-rule:nonzero}
    .fil69 {fill:#61A2FF;fill-rule:nonzero}
    .fil68 {fill:#62A3FF;fill-rule:nonzero}
    .fil67 {fill:#63A4FF;fill-rule:nonzero}
    .fil2 {fill:#64A4FF;fill-rule:nonzero}
    .fil66 {fill:#64A5FF;fill-rule:nonzero}
    .fil65 {fill:#65A6FF;fill-rule:nonzero}
    .fil64 {fill:#66A6FF;fill-rule:nonzero}
    .fil63 {fill:#67A7FF;fill-rule:nonzero}
    .fil62 {fill:#68A8FF;fill-rule:nonzero}
    .fil61 {fill:#69A9FF;fill-rule:nonzero}
    .fil60 {fill:#6AA9FF;fill-rule:nonzero}
    .fil59 {fill:#6BAAFF;fill-rule:nonzero}
    .fil58 {fill:#6CABFF;fill-rule:nonzero}
    .fil57 {fill:#6DACFF;fill-rule:nonzero}
    .fil91 {fill:#6E6760;fill-rule:nonzero}
    .fil56 {fill:#6EADFF;fill-rule:nonzero}
    .fil55 {fill:#6FADFF;fill-rule:nonzero}
    .fil54 {fill:#70AEFF;fill-rule:nonzero}
    .fil53 {fill:#71AFFF;fill-rule:nonzero}
    .fil52 {fill:#72B0FF;fill-rule:nonzero}
    .fil51 {fill:#73B0FF;fill-rule:nonzero}
    .fil50 {fill:#74B1FF;fill-rule:nonzero}
    .fil49 {fill:#76B2FF;fill-rule:nonzero}
    .fil48 {fill:#77B3FF;fill-rule:nonzero}
    .fil47 {fill:#78B4FF;fill-rule:nonzero}
    .fil46 {fill:#79B4FF;fill-rule:nonzero}
    .fil45 {fill:#7AB5FF;fill-rule:nonzero}
    .fil44 {fill:#7BB6FF;fill-rule:nonzero}
    .fil43 {fill:#7CB7FF;fill-rule:nonzero}
    .fil42 {fill:#7DB7FF;fill-rule:nonzero}
    .fil41 {fill:#7EB8FF;fill-rule:nonzero}
    .fil40 {fill:#7FB9FF;fill-rule:nonzero}
    .fil92 {fill:#807066;fill-rule:nonzero}
    .fil39 {fill:#80BAFF;fill-rule:nonzero}
    .fil38 {fill:#81BBFF;fill-rule:nonzero}
    .fil37 {fill:#82BBFF;fill-rule:nonzero}
    .fil36 {fill:#83BCFF;fill-rule:nonzero}
    .fil35 {fill:#84BDFF;fill-rule:nonzero}
    .fil34 {fill:#85BEFF;fill-rule:nonzero}
    .fil33 {fill:#86BFFF;fill-rule:nonzero}
    .fil32 {fill:#87BFFF;fill-rule:nonzero}
    .fil31 {fill:#88C0FF;fill-rule:nonzero}
    .fil30 {fill:#89C1FF;fill-rule:nonzero}
    .fil29 {fill:#8AC2FF;fill-rule:nonzero}
    .fil28 {fill:#8BC2FF;fill-rule:nonzero}
    .fil27 {fill:#8CC3FF;fill-rule:nonzero}
    .fil26 {fill:#8DC4FF;fill-rule:nonzero}
    .fil25 {fill:#8EC5FF;fill-rule:nonzero}
    .fil24 {fill:#8FC6FF;fill-rule:nonzero}
    .fil23 {fill:#90C6FF;fill-rule:nonzero}
    .fil89 {fill:#91887F;fill-rule:nonzero}
    .fil22 {fill:#91C7FF;fill-rule:nonzero}
    .fil21 {fill:#92C8FF;fill-rule:nonzero}
    .fil20 {fill:#93C9FF;fill-rule:nonzero}
    .fil19 {fill:#94C9FF;fill-rule:nonzero}
    .fil18 {fill:#95CAFF;fill-rule:nonzero}
    .fil17 {fill:#96CBFF;fill-rule:nonzero}
    .fil4 {fill:#97A43C;fill-rule:nonzero}
    .fil14 {fill:#A77860;fill-rule:nonzero}
    .fil3 {fill:#BBD070;fill-rule:nonzero}
    .fil124 {fill:#C2BEBC;fill-rule:nonzero}
    .fil127 {fill:#C2C2C2;fill-rule:nonzero}
    .fil103 {fill:#C48A6F;fill-rule:nonzero}
    .fil10 {fill:#C4C1CC;fill-rule:nonzero}
    .fil119 {fill:#C98462;fill-rule:nonzero}
    .fil94 {fill:#CF8C6C;fill-rule:nonzero}
    .fil82 {fill:#CFA345;fill-rule:nonzero}
    .fil110 {fill:#D1C0BA;fill-rule:nonzero}
    .fil125 {fill:#D6D6D6;fill-rule:nonzero}
    .fil100 {fill:#D9D0C4;fill-rule:nonzero}
    .fil104 {fill:#DB9C7C;fill-rule:nonzero}
    .fil6 {fill:#DBD8E3;fill-rule:nonzero}
    .fil120 {fill:#DE9D7D;fill-rule:nonzero}
    .fil98 {fill:#DEB135;fill-rule:nonzero}
    .fil117 {fill:#E2D2CA;fill-rule:nonzero}
    .fil106 {fill:#E3F2FF;fill-rule:nonzero}
    .fil9 {fill:#E8734D;fill-rule:nonzero}
    .fil126 {fill:#E8E8E8;fill-rule:nonzero}
    .fil86 {fill:#EB4747;fill-rule:nonzero}
    .fil107 {fill:#EBEBEB;fill-rule:nonzero}
    .fil90 {fill:#EDDAD3;fill-rule:nonzero}
    .fil12 {fill:#EEA886;fill-rule:nonzero}
    .fil8 {fill:#EEA987;fill-rule:nonzero}
    .fil11 {fill:#EFAA88;fill-rule:nonzero}
    .fil118 {fill:#F25F54;fill-rule:nonzero}
    .fil99 {fill:#F2C344;fill-rule:nonzero}
    .fil111 {fill:#FAE6DE;fill-rule:nonzero}
    .fil116 {fill:#FCCCA2;fill-rule:nonzero}
    .fil16 {fill:#FFC955;fill-rule:nonzero}
    .fil93 {fill:#FFCB55;fill-rule:nonzero}
    .fil101 {fill:#FFD255;fill-rule:nonzero}
    .fil0 {fill:url(#id0)}
    .fil1 {fill:url(#id1)}
   ]]>
  </style>
  <linearGradient id="id0" gradientUnits="userSpaceOnUse" x1="14593.15" y1="15551.79" x2="20039.79" y2="15551.79">
   <stop offset="0" style="stop-opacity:1; stop-color:#96CBFF"/>
   <stop offset="1" style="stop-opacity:1; stop-color:#5599FF"/>
  </linearGradient>
  <linearGradient id="id1" gradientUnits="userSpaceOnUse" xlink:href="#id0" x1="3897.67" y1="12204.81" x2="7943.46" y2="11789.17">
  </linearGradient>
 </defs>
 <g id="Layer_x0020_1">
  <metadata id="CorelCorpID_0Corel-Layer"/>
  <path class="fil0" d="M16445.44 16406.71c-472.15,-481.02 -464.96,-1253.77 16.09,-1725.93 481.08,-472.2 1253.81,-464.96 1725.97,16.08 472.19,481.05 464.96,1253.81 -16.09,1725.93 -481.05,472.16 -1253.77,464.96 -1725.97,-16.08zm2880.82 353.13c113.81,-189.02 198.48,-390.81 254.25,-598.74l450 -86.22 4.66 -497.73 4.62 -497.77 -448.31 -94.58c-51.89,-208.95 -132.78,-412.25 -243.03,-603.39l257.04 -378.85 -348.72 -355.25 -348.65 -355.24 -383.62 249.94c-189.01,-113.81 -390.77,-198.47 -598.69,-254.25l-86.26 -450 -497.73 -4.66 -497.74 -4.62 -94.61 448.31c-208.95,51.9 -412.22,132.79 -603.36,243.03l-378.88 -257.03 -355.25 348.68 -355.21 348.69 249.94 383.61c-113.84,189.02 -198.51,390.74 -254.24,598.7l-450.04 86.25 -4.62 497.74 -4.66 497.73 448.34 94.58c51.86,208.95 132.79,412.26 243.03,603.39l-257.03 378.85 348.65 355.25 348.68 355.28 383.62 -249.94c189.05,113.77 390.77,198.47 598.73,254.24l86.22 450.01 497.77 4.62 497.73 4.65 94.58 -448.38c208.95,-51.82 412.26,-132.71 603.36,-242.99l378.85 257.07 355.28 -348.69 355.25 -348.68 -249.95 -383.61z"/>
  <path class="fil1" d="M5338.84 12698.55c-387.46,-321.27 -441.05,-895.84 -119.77,-1283.26 321.31,-387.46 895.84,-441.08 1283.26,-119.77 387.49,321.28 441.08,895.85 119.81,1283.27 -321.31,387.42 -895.85,441.04 -1283.3,119.76zm2166.86 42.44c70.1,-149.08 117.58,-305.43 143.12,-464.15l327.7 -98.39 -34.54 -370.06 -34.53 -370.1 -340.22 -36.05c-54.51,-151.27 -130.11,-296.09 -226.59,-429.65l162.03 -301.03 -286.14 -237.27 -286.1 -237.28 -265.86 214.94c-149.11,-70.13 -305.43,-117.61 -464.15,-143.15l-98.39 -327.7 -370.09 34.54 -370.1 34.54 -36.02 340.25c-151.27,54.47 -296.12,130.07 -429.65,226.55l-301.03 -161.99 -237.31 286.1 -237.24 286.1 214.91 265.86c-70.1,149.12 -117.58,305.43 -143.12,464.18l-327.7 98.39 34.5 370.07 34.58 370.09 340.22 36.06c54.5,151.23 130.1,296.09 226.58,429.61l-162.03 301.06 286.14 237.28 286.1 237.24 265.86 -214.91c149.12,70.1 305.43,117.58 464.15,143.16l98.42 327.69 370.07 -34.53 370.1 -34.54 36.01 -340.25c151.28,-54.47 296.09,-130.07 429.65,-226.59l301.03 162.03 237.28 -286.11 237.27 -286.13 -214.91 -265.86z"/>
  <path class="fil2" d="M18488.06 20226.2l-31.18 0 0 -2217.78c0,-493.5 -401.46,-894.92 -894.96,-894.92l-2281.77 0c-510.68,0 -926.15,-415.47 -926.15,-926.11l0 -4145.5c0,-493.46 -401.46,-894.89 -894.89,-894.89l-5818.22 0 0 -31.22 5818.22 0c510.65,0 926.11,415.47 926.11,926.11l0 4145.5c0,493.43 401.43,894.92 894.93,894.92l2281.77 0c510.71,0 926.14,415.43 926.14,926.11l0 2217.78z"/>
  <path class="fil3" d="M9132.18 9711.09c0,0 352.15,1402.22 -493.32,1785.55 -845.47,383.29 -683.51,-318.56 -683.51,-318.56 0,0 -346.78,-96.34 596.97,-631.4 444.82,-252.17 579.86,-835.59 579.86,-835.59z"/>
  <path class="fil4" d="M11346.36 9833.47c0,0 173.32,1222.27 -1426.74,1750.62 -1600.13,528.32 -1827.95,1198.53 -1827.95,1198.53 0,0 -47.88,-2709.05 3254.69,-2949.15z"/>
  <path class="fil5" d="M8084.5 12284.82c-474.45,-181.08 653.31,-1152.11 1520.02,-1125.89 866.7,26.24 1454.04,346.99 2034.57,211.45 0,0 -1218.21,1806.19 -3554.59,914.44z"/>
  <path class="fil6" d="M5829.55 14653.79c5.01,-344.91 464.29,-986.47 464.29,-986.47 0,0 21.24,-9.03 21.55,-8.12 0.29,0.32 23.68,-3.28 23.68,-2.96 0.49,0 71.36,-67.59 71.82,-67.59 16.86,61.35 169.02,927.8 206.31,1432.2 -431.35,-84.73 -790.16,-202.56 -787.65,-367.06zm3849.02 -1557.66c27.3,-368.61 46.32,-713.38 57.11,-1034.87 -88.97,-47.13 -195.86,-102.2 -281.41,-142.8 -264.83,-126.09 -633.76,-295.88 -870.51,-404.5 -138.58,-63.67 -274.36,-110.21 -274.36,-110.21 0,0 -946.18,-90.66 -1022.98,-85.83 -24.24,1.41 -142.49,42.62 -297.64,101.78 -335.53,127.32 -982.42,386.57 -1085.39,460.55 -151.06,108.13 -691.55,2757.49 -705.91,2937.41 -14.01,174.76 735.08,413.91 1428.78,597.11 -0.49,268.57 -5.92,644.84 -12.03,988.34 -0.91,58.7 -2.01,116.27 -3.14,172.15l3035.44 0c-4.05,-58.98 -7.62,-117.22 -10.58,-172.15 -0.32,-7.34 -0.78,-14.5 -1.09,-21.7 -11.57,-232.65 -56.8,-649.36 -45.26,-1055.16 0,0 -7.34,-427.77 35.1,-611.89 4.69,-813.12 53.87,-1618.23 53.87,-1618.23z"/>
  <path class="fil7" d="M9734.73 16403.11c-19.97,-143.72 -38.84,-287.34 -55.88,-427.92 0,-0.78 -0.28,-1.24 -0.28,-2.05 -5.51,-46.81 -11.12,-92.99 -16.41,-139.03 -0.32,-2.22 -0.46,-4.69 -0.77,-7.33 -22.19,-193.64 -40.57,-379.42 -53.84,-549.49 -9.98,-130.35 -0.95,-257.67 16.97,-382.2 52.78,-869.77 79.02,-1786.78 79.02,-1786.78 27.77,-375.32 43.68,-726.16 54.3,-1053.12 0,0 -1188.12,-561.51 -1295.83,-593.69 0,0 225.39,529.24 394.41,1712.03 64.91,454.31 185.24,1219.03 272.62,1999.51l0 0.14c47.28,421.22 135.93,850.23 203.35,1229.93 10.3,58.7 20.14,116.13 29.17,172.15l397.69 0c-8.47,-57.25 -16.55,-114.68 -24.52,-172.15z"/>
  <path class="fil7" d="M6327.25 14340.52c-10.44,-395.78 -8.61,-671.93 -8.61,-671.93 39.19,135.6 93.35,523.1 141.08,908.26 -160.55,-80.82 -130.43,-156.39 -132.47,-236.33zm1429.38 665.48c46.82,-439.77 88.97,-878.63 68.65,-1119.08 -163.86,-1933.33 -627.52,-2445.07 -694.79,-2520 -51.97,19.83 -249.84,94.12 -307.77,117.06 -317.11,125.02 -963.5,354.11 -1050.6,416.7 -151.06,108.16 -746.62,2885.65 -764.58,3065.25 -12.03,121.42 765.21,375.14 1558.15,601.62 -7.34,217.39 13.23,524.06 -59.02,844.27 -12.63,56.8 -31.33,92.68 -34.25,167.78l1105.35 -4.34c6.71,-57.11 13.73,-114.4 20.78,-172.15 21.03,-172.76 43.04,-349.71 64.88,-537.78 331.5,85.8 556.86,141.08 556.86,141.08 0,0 311.36,-526.41 401.71,-739.56 15.45,-36.37 -385.34,-132.68 -865.37,-260.85z"/>
  <path class="fil8" d="M7236.78 11348.23c0,0 120.33,-227.4 87.07,-873.02 -9.18,-178.86 939.51,424.18 939.51,424.18 0,0 -3.28,61.63 -5.32,144.81 -1.06,34.65 -1.7,72.57 -1.7,111.59 0,10.76 0.14,21.52 0.14,32.31 0.18,17.64 0.32,35.1 0.64,52.6 0.46,21.7 1.27,42.9 2.33,63.36 1.09,23.25 2.64,45.22 4.87,65.37 3.88,39.02 26.81,107.84 35.1,126.75 43.53,100.33 -707.46,106.12 -1062.64,-147.95z"/>
  <path class="fil9" d="M8032.15 11758.86l174.84 234.91c0,0 -102.45,137.16 -284.37,35.88l109.53 -270.79z"/>
  <path class="fil9" d="M8160.21 12003.3c0,0 640.57,1564.53 503.91,3551.84l-202.04 366.67 -227.82 -312.27c0,0 -36.76,-2639.35 -218.58,-3612.52l144.53 6.28z"/>
  <path class="fil8" d="M8219.34 11539.82l-187.19 219.04c0,0 -300.46,-58.21 -388.65,-215.16 -88.23,-156.95 575.84,-3.88 575.84,-3.88z"/>
  <path class="fil10" d="M8262.27 11348.16c0,0 -21.73,166.97 -230.12,410.7l227.47 305.61 123.12 -634.01 -120.47 -82.3z"/>
  <path class="fil10" d="M7293.93 11147.35c0,0 434.41,491.39 738.22,611.51l-141.28 349.43 -693.35 -764.83 96.41 -196.11z"/>
  <path class="fil7" d="M11759.99 15592.95c0,0 -576.65,-559.25 -954.86,-652.25 -174.84,-43.04 -405.13,-284.41 -623.96,-568.14 -72.11,-93.42 -142.88,-191.49 -210.19,-288.54 -0.17,-0.18 -0.17,-0.39 -0.17,-0.39 -268.5,-387.67 -478.86,-759.21 -478.86,-759.21 0,0 -793.61,-930 -156.78,-1344.58 0,0 272.91,-5.89 422.63,75.42 153.92,83.58 482.25,768.81 537.92,890.17 55.66,121.18 658.74,1248.27 699.1,1273.6 40.42,25.29 107.7,117.97 349,247.89 295.41,159.07 759.49,624.6 759.49,624.6l-343.32 501.43z"/>
  <path class="fil11" d="M8991.99 16240.2c0,0 -80.57,-3.25 -115.08,-21.88 0,0 -60.25,-38.63 -104.74,-63.5 -14.14,-7.9 -26.67,-14.42 -35.17,-17.78 -35.56,-14.11 -117.83,-34.43 -193.67,-92.28 -75.85,-57.79 -323.04,-289.07 -323.04,-289.07l159.77 -245.6 73.77 -243.21c0,0 576.33,57.33 653.2,103.01 7.48,4.48 14.71,9.21 21.17,14.15 61.35,44.98 88.09,104.28 117.61,131.55 10.76,10.09 111.13,117.55 105.52,161.11 -7.73,60.51 -37.61,99.31 -75.14,117.69 0,0 -20.32,117.76 -81.21,170.43 0,0 -15.28,109.29 -109.64,153.17 0,0 -27.91,109.12 -93.35,122.21z"/>
  <path class="fil12" d="M8074.31 8809.5c0,0 1041.68,-251.11 822.29,1067.75 -219.46,1318.89 -469.3,1425.93 -1103.88,1163 -634.57,-262.96 -590.48,-1106.56 -628.26,-1519.34 -37.82,-412.75 576.62,-692.15 909.85,-711.41z"/>
  <path class="fil12" d="M7527.01 9722.87c-15.45,-115.85 -245.46,-155.01 -261.37,19.23 -15.91,174.27 111.26,477.84 197.87,446.51 86.61,-31.33 84.88,-306 63.5,-465.74z"/>
  <path class="fil13" d="M7225.31 10195.14c0,0 20.85,-414.83 172.02,-430 151.23,-15.17 176.95,151.41 176.95,151.41l153.28 26.63c0,0 -53.65,-362.55 96.56,-428.23 150.25,-65.69 982.24,185.59 1102.01,77.18 119.76,-108.37 51.86,-844.37 -169.05,-941.98 -220.88,-97.62 -830.2,-314.68 -1269.79,-7.62 0,0 -346.68,-34.4 -393.91,245.67 -47.24,280.04 34.78,1100.63 131.93,1306.94z"/>
  <path class="fil7" d="M8650.4 15266.88l-430.11 739.49c0,0 -1139.44,-293.61 -1405.29,-368.61l607.73 -723.34c0,0 896.05,204.72 1227.67,352.46z"/>
  <path class="fil14" d="M8259.45 11304.06l-0.14 0c-558.73,-56.97 -775.3,-487.08 -775.3,-487.08 351.4,348.33 772.33,338.81 772.33,338.81 0,10.76 0.14,21.52 0.14,32.31 0.18,17.64 0.32,35.1 0.64,52.6 0.46,21.7 1.27,42.9 2.33,63.36z"/>
  <path class="fil15" d="M15882.87 18080.85l-0.07 0.03c-11.5,4.2 -23.78,6.74 -36.55,7.45l0 0c-2.86,0.14 -5.71,0.17 -8.57,0.17 -12.07,-0.17 -23.71,-2.08 -34.75,-5.39 -15.28,-4.55 -29.35,-11.79 -41.63,-21.31 -4.48,-3.42 -8.68,-7.27 -12.66,-11.25 -23.07,-23.43 -37.22,-55.67 -36.73,-91.13 0.11,-9.24 1.27,-18.2 3.28,-26.88 0.96,-4.2 2.01,-8.32 3.39,-12.35 17.25,-50.94 65.72,-87.31 122.38,-86.57 40.71,0.5 76.76,20.11 99.66,50.1 16.76,21.94 26.53,49.32 26.18,78.98 -0.71,54.51 -35.53,100.58 -83.93,118.15zm92.29 -222.07c-30.59,-40.54 -78.92,-67.03 -133.64,-67.67 -75.56,-1.02 -140.26,47.49 -163.23,115.43l0 0c-5.57,16.44 -8.67,34.01 -8.92,52.32 -0.28,21.34 3.46,41.77 10.37,60.68 11.04,30.26 30.48,56.51 55.49,75.91 24.91,19.3 55.28,31.86 88.51,34.86 4.41,0.35 8.89,0.67 13.41,0.7 2.82,0.04 5.64,-0.07 8.43,-0.17 0.95,-0.04 1.98,0 2.96,-0.04 17.04,-0.91 33.45,-4.37 48.86,-9.95 64.53,-23.42 110.95,-84.87 111.94,-157.62 0.49,-39.16 -12.31,-75.39 -34.18,-104.45z"/>
  <path class="fil12" d="M9458.93 14659.5c647.59,666.61 1503.18,1506.12 1503.18,1506.12l334.47 -634.93c0,0 -759.95,-890.91 -1275.15,-1485.37 -157.9,77.43 -447.81,262.15 -562.5,614.18z"/>
  <path class="fil12" d="M9058.95 15555.84c0,0 174.34,84.25 219.85,121.75 45.54,37.57 229.97,175.64 274.71,208.13 44.66,32.5 -67.45,124.89 -397.23,-17.95 -329.85,-142.88 -97.33,-311.93 -97.33,-311.93z"/>
  <polygon class="fil16" points="9074.19,13647.84 8770.3,16473.03 12769.92,16473.03 13073.81,13647.84 "/>
  <path class="fil16" d="M9002.01 16311.39l3968.22 0 300.53 -2793.97 -3968.25 0 -300.5 2793.97zm3996.23 31.25l-4030.98 0 307.2 -2856.4 4031.01 0 -307.23 2856.4z"/>
  <polygon class="fil16" points="8452.03,16473.03 9120.05,16473.03 9120.05,16218.85 8452.03,16218.85 "/>
  <polygon class="fil17" points="2025.58,16467.17 2025.58,16639.29 "/>
  <polygon class="fil17" points="2025.58,16639.29 2192.81,16639.29 2192.81,16467.18 2025.58,16467.18 "/>
  <polygon class="fil18" points="2192.81,16639.29 2360.03,16639.29 2360.03,16467.18 2192.81,16467.18 "/>
  <polygon class="fil19" points="2360.03,16639.29 2527.25,16639.29 2527.25,16467.18 2360.03,16467.18 "/>
  <polygon class="fil20" points="2527.26,16639.29 2694.48,16639.29 2694.48,16467.18 2527.26,16467.18 "/>
  <polygon class="fil21" points="2694.48,16639.29 2861.71,16639.29 2861.71,16467.18 2694.48,16467.18 "/>
  <polygon class="fil22" points="2861.7,16639.29 3028.91,16639.29 3028.91,16467.18 2861.7,16467.18 "/>
  <polygon class="fil23" points="3028.92,16639.29 3196.17,16639.29 3196.17,16467.18 3028.92,16467.18 "/>
  <polygon class="fil24" points="3196.17,16639.29 3363.38,16639.29 3363.38,16467.18 3196.17,16467.18 "/>
  <polygon class="fil25" points="3363.39,16639.29 3530.64,16639.29 3530.64,16467.18 3363.39,16467.18 "/>
  <polygon class="fil26" points="3530.64,16639.29 3697.86,16639.29 3697.86,16467.18 3530.64,16467.18 "/>
  <polygon class="fil27" points="3697.85,16639.29 3865.11,16639.29 3865.11,16467.18 3697.85,16467.18 "/>
  <polygon class="fil28" points="3865.11,16639.29 4032.32,16639.29 4032.32,16467.18 3865.11,16467.18 "/>
  <polygon class="fil29" points="4032.32,16639.29 4199.55,16639.29 4199.55,16467.18 4032.32,16467.18 "/>
  <polygon class="fil30" points="4199.54,16639.29 4366.75,16639.29 4366.75,16467.18 4199.54,16467.18 "/>
  <polygon class="fil31" points="4366.76,16639.29 4533.97,16639.29 4533.97,16467.18 4366.76,16467.18 "/>
  <polygon class="fil32" points="4533.97,16639.29 4701.23,16639.29 4701.23,16467.18 4533.97,16467.18 "/>
  <polygon class="fil33" points="4701.22,16639.29 4868.45,16639.29 4868.45,16467.18 4701.22,16467.18 "/>
  <polygon class="fil34" points="4868.44,16639.29 5035.65,16639.29 5035.65,16467.18 4868.44,16467.18 "/>
  <polygon class="fil35" points="5035.66,16639.29 5202.88,16639.29 5202.88,16467.18 5035.66,16467.18 "/>
  <polygon class="fil36" points="5202.87,16639.29 5370.15,16639.29 5370.15,16467.18 5202.87,16467.18 "/>
  <polygon class="fil37" points="5370.16,16639.29 5537.37,16639.29 5537.37,16467.18 5370.16,16467.18 "/>
  <polygon class="fil38" points="5537.38,16639.29 5704.6,16639.29 5704.6,16467.18 5537.38,16467.18 "/>
  <polygon class="fil39" points="5704.6,16639.29 5871.81,16639.29 5871.81,16467.18 5704.6,16467.18 "/>
  <polygon class="fil40" points="5871.81,16639.29 6039.06,16639.29 6039.06,16467.18 5871.81,16467.18 "/>
  <polygon class="fil41" points="6039.06,16639.29 6206.29,16639.29 6206.29,16467.18 6039.06,16467.18 "/>
  <polygon class="fil42" points="6206.28,16639.29 6373.49,16639.29 6373.49,16467.18 6206.28,16467.18 "/>
  <polygon class="fil43" points="6373.5,16639.29 6540.71,16639.29 6540.71,16467.18 6373.5,16467.18 "/>
  <polygon class="fil44" points="6540.71,16639.29 6707.94,16639.29 6707.94,16467.18 6540.71,16467.18 "/>
  <polygon class="fil45" points="6707.93,16639.29 6875.18,16639.29 6875.18,16467.18 6707.93,16467.18 "/>
  <polygon class="fil46" points="6875.18,16639.29 7042.39,16639.29 7042.39,16467.18 6875.18,16467.18 "/>
  <polygon class="fil47" points="7042.4,16639.29 7209.65,16639.29 7209.65,16467.18 7042.4,16467.18 "/>
  <polygon class="fil48" points="7209.65,16639.29 7376.88,16639.29 7376.88,16467.18 7209.65,16467.18 "/>
  <polygon class="fil49" points="7376.87,16639.29 7544.11,16639.29 7544.11,16467.18 7376.87,16467.18 "/>
  <polygon class="fil50" points="7544.12,16639.29 7711.34,16639.29 7711.34,16467.18 7544.12,16467.18 "/>
  <polygon class="fil51" points="7711.34,16639.29 7878.55,16639.29 7878.55,16467.18 7711.34,16467.18 "/>
  <polygon class="fil52" points="7878.55,16639.29 8045.78,16639.29 8045.78,16467.18 7878.55,16467.18 "/>
  <polygon class="fil53" points="8045.77,16639.29 8213.02,16639.29 8213.02,16467.18 8045.77,16467.18 "/>
  <polygon class="fil54" points="8213.02,16639.29 8380.23,16639.29 8380.23,16467.18 8213.02,16467.18 "/>
  <polygon class="fil55" points="8380.24,16639.29 8547.45,16639.29 8547.45,16467.18 8380.24,16467.18 "/>
  <polygon class="fil56" points="8547.46,16639.29 8714.68,16639.29 8714.68,16467.18 8547.46,16467.18 "/>
  <polygon class="fil57" points="8714.67,16639.29 8881.92,16639.29 8881.92,16467.18 8714.67,16467.18 "/>
  <polygon class="fil58" points="8881.92,16639.29 9049.18,16639.29 9049.18,16467.18 8881.92,16467.18 "/>
  <polygon class="fil59" points="9049.18,16639.29 9216.39,16639.29 9216.39,16467.18 9049.18,16467.18 "/>
  <polygon class="fil60" points="9216.39,16639.29 9383.62,16639.29 9383.62,16467.18 9216.39,16467.18 "/>
  <polygon class="fil61" points="9383.61,16639.29 9550.82,16639.29 9550.82,16467.18 9383.61,16467.18 "/>
  <polygon class="fil62" points="9550.83,16639.29 9718.08,16639.29 9718.08,16467.18 9550.83,16467.18 "/>
  <polygon class="fil63" points="9718.08,16639.29 9885.29,16639.29 9885.29,16467.18 9718.08,16467.18 "/>
  <polygon class="fil64" points="9885.29,16639.29 10052.52,16639.29 10052.52,16467.18 9885.29,16467.18 "/>
  <polygon class="fil65" points="10052.51,16639.29 10219.72,16639.29 10219.72,16467.18 10052.51,16467.18 "/>
  <polygon class="fil66" points="10219.73,16639.29 10386.98,16639.29 10386.98,16467.18 10219.73,16467.18 "/>
  <polygon class="fil67" points="10386.98,16639.29 10554.2,16639.29 10554.2,16467.18 10386.98,16467.18 "/>
  <polygon class="fil68" points="10554.2,16639.29 10721.44,16639.29 10721.44,16467.18 10554.2,16467.18 "/>
  <polygon class="fil69" points="10721.45,16639.29 10888.67,16639.29 10888.67,16467.18 10721.45,16467.18 "/>
  <polygon class="fil70" points="10888.66,16639.29 11055.92,16639.29 11055.92,16467.18 10888.66,16467.18 "/>
  <polygon class="fil71" points="11055.92,16639.29 11223.13,16639.29 11223.13,16467.18 11055.92,16467.18 "/>
  <polygon class="fil72" points="11223.13,16639.29 11390.36,16639.29 11390.36,16467.18 11223.13,16467.18 "/>
  <polygon class="fil73" points="11390.35,16639.29 11557.56,16639.29 11557.56,16467.18 11390.35,16467.18 "/>
  <polygon class="fil74" points="11557.57,16639.29 11724.78,16639.29 11724.78,16467.18 11557.57,16467.18 "/>
  <polygon class="fil75" points="11724.78,16639.29 11892.04,16639.29 11892.04,16467.18 11724.78,16467.18 "/>
  <polygon class="fil76" points="11892.04,16639.29 12059.26,16639.29 12059.26,16467.18 11892.04,16467.18 "/>
  <polygon class="fil77" points="12059.25,16639.29 12226.46,16639.29 12226.46,16467.18 12059.25,16467.18 "/>
  <polygon class="fil78" points="12226.47,16639.29 12393.69,16639.29 12393.69,16467.18 12226.47,16467.18 "/>
  <polygon class="fil79" points="12393.69,16639.29 12560.97,16639.29 12560.97,16467.18 12393.69,16467.18 "/>
  <polygon class="fil80" points="12560.97,16639.29 12728.2,16639.29 12728.2,16467.18 12560.97,16467.18 "/>
  <polygon class="fil81" points="12728.19,16639.29 12895.4,16639.29 12895.4,16467.18 12728.19,16467.18 "/>
  <polygon class="fil81" points="12895.41,16639.29 12895.41,16467.17 "/>
  <polygon class="fil16" points="10120.07,20312.27 19537.86,20312.27 19537.86,20140.11 10120.07,20140.11 "/>
  <path class="fil82" d="M10699.96 15015.07c-32.13,157.27 41.24,305.12 163.9,330.16 122.67,25.09 248.15,-82.12 280.29,-239.43 32.17,-157.3 -41.21,-305.15 -163.87,-330.2 -122.69,-25.08 -248.14,82.13 -280.32,239.47z"/>
  <path class="fil83" d="M18328.01 13895.25c0,0 92.25,156.42 131.23,181.96 52.85,34.68 19.72,69.74 -5.36,69.74 -25.12,0.04 -153.39,9.21 -181.65,-22.86 -28.25,-32.03 -42.26,-128.16 -68.54,-153.28 -26.28,-25.15 -53.45,-125.06 12.8,-149.36 58.53,-21.45 111.52,73.8 111.52,73.8z"/>
  <path class="fil84" d="M18288.04 13826.46c0,0 105.65,183.16 123.89,210.25 18.21,27.02 -34.29,26.99 -66.81,14.11 -32.53,-12.8 -114.37,-144.18 -126.16,-168.13 -14,-28.54 -2.47,-61.24 -2.47,-61.24l71.55 5.01z"/>
  <polygon class="fil83" points="18181,13925.02 18205.42,14112.8 18218.33,14113.37 18214.31,13978.26 "/>
  <path class="fil83" d="M17413.11 13895.25c0,0 92.25,156.42 131.2,181.96 52.88,34.68 19.76,69.74 -5.36,69.74 -25.12,0.04 -153.35,9.21 -181.58,-22.86 -28.29,-32.03 -42.29,-128.16 -68.58,-153.28 -26.28,-25.15 -54.32,-127.67 12.78,-149.36 58.87,-19.02 111.54,73.8 111.54,73.8z"/>
  <path class="fil84" d="M17378.72 13826.84c0,0 100.12,182.78 118.32,209.87 18.2,27.02 -34.29,26.99 -66.82,14.11 -32.56,-12.8 -114.37,-144.18 -126.11,-168.13 -14.05,-28.54 -2.54,-61.24 -2.54,-61.24l77.15 5.39z"/>
  <polygon class="fil83" points="17266.15,13925.02 17290.52,14112.8 17303.43,14113.37 17299.41,13978.26 "/>
  <path class="fil84" d="M17003.79 12471.89l834.88 380.44c0,0 93.2,30.3 103.65,133.77 32.56,322.97 274.17,835.35 274.17,835.35 77.51,37.92 71.55,5.01 71.55,5.01 -48.83,-156.81 -108.31,-803.07 -129.54,-1062.92 -4.45,-55.04 -7.27,-92.75 -7.83,-104.78 -0.43,-8.18 -9.42,-18.94 -24.87,-31.47 -114.55,-92.88 -585.97,-285.22 -585.97,-285.22 -353.94,-8.96 -536.04,129.82 -536.04,129.82z"/>
  <path class="fil84" d="M16846.41 12635.27c25.86,225.67 347.98,199.81 347.98,199.81l390.42 0c0,0 -102.52,228.21 -142.13,420.69 -42.02,204.25 -141.11,565.68 -141.11,565.68 0,0 6.52,12.27 77.15,5.39 0,0 306.49,-610.8 423.79,-764.36 25.22,-33.06 97.54,-212.41 110,-319.41 4.19,-36.01 1.62,-63.81 -11.82,-75.07 -13.55,-11.36 -44.7,-32.73 -86.19,-58.91 -122.3,-77.12 -334.68,-195.83 -453,-222.43 -158.47,-35.63 -409.15,-102.37 -409.15,-102.37 0,0 -131.76,125.3 -105.94,350.98z"/>
  <path class="fil85" d="M17112.12 10897.06c0,0 -58.45,-110.95 -29.95,-229.09 28.47,-118.15 138.12,-235.87 298.63,-181.83 160.51,54.08 290.26,178.79 194.06,322.94 -96.24,144.18 87.03,209.3 40.36,277.91 -46.74,68.62 -29,140.23 -9.24,156.21 19.79,15.95 83.57,72.85 76.55,140.2 -7.02,67.38 -311.43,-196.29 -311.43,-196.29 0,0 -165.77,-333.13 -258.98,-290.05z"/>
  <path class="fil86" d="M17601.39 12315.01c0,0 -24.2,117.44 -647.77,-30.83 0,0 209.06,-69.43 647.77,30.83z"/>
  <path class="fil87" d="M16946.56 12317.13c-9.66,18.45 -19.33,36.9 -28.99,55.35 227.96,6.63 455.89,13.27 683.82,19.93 -36.05,-120.75 -24.38,-284.23 -18.06,-408.34 7.72,-151.55 91.44,-256.96 82.51,-410.24 45.09,7.27 52.88,8.68 98.04,15.59 -69.04,-196.81 -92.71,-294.29 -307.27,-370.03 -69.81,-24.66 -115.75,-29.56 -191.35,-23.32 -248.49,20.5 -323.42,23.43 -445.45,248.57 191.03,30.41 159.6,99.03 217.52,289.07 28.26,92.67 57.75,196.11 42.58,293.86 -14.88,96.24 -133.35,201.79 -133.35,289.56z"/>
  <path class="fil12" d="M17343.09 11267.09c-101.71,-19.23 -80.05,-75.78 -80.05,-75.78 0,0 4.69,-31.93 6.53,-72.25 0.49,-10.33 0.77,-21.24 0.74,-32.28 -0.07,-16.75 -0.88,-33.9 -2.82,-50.02 -8.33,-68.23 184.61,-27.55 184.61,-27.55 0,0 -11.12,138.14 15.48,179.53 26.57,41.41 -22.79,97.54 -124.49,78.35z"/>
  <path class="fil12" d="M17149.09 11190.96c0,0 205.14,236.85 280.96,291.75 0,0 87.13,-78.74 33.4,-286.64 0,0 -98.98,-49.6 -314.36,-5.11z"/>
  <path class="fil12" d="M17154.67 10620.9c0,0 -106.51,205.25 -0.85,399.67 105.66,194.41 313.23,-84.67 326.67,-117.41 13.44,-32.74 84.6,-217.94 -56.97,-274.21 -141.6,-56.31 -238.69,-63.75 -268.85,-8.05z"/>
  <path class="fil85" d="M17190.09 10693.72c0,0 -73.31,96.31 -81.99,167.5 0,0 -29.21,-134.55 53.34,-263.85 82.55,-129.29 292.42,-6.13 320.54,45.51 28.11,51.65 110.49,97.16 -27.91,319.13 0,0 -248.92,-172.94 -263.98,-268.29z"/>
  <path class="fil14" d="M17360.34 11041.06c0,0 -18.49,40.4 -90.77,78 0.49,-10.33 0.77,-21.24 0.74,-32.28 0,0 48.89,-5.92 90.03,-45.72z"/>
  <path class="fil12" d="M16283.73 12132.45c0,0 -50.66,22.51 -74.65,12.31 -24.02,-10.23 -61.17,-12.2 -72.88,-12.24 -15.66,-0.03 -64.7,-17.5 -63.82,1.62 0.81,19.16 79.59,32.53 95.71,38.53 16.12,5.96 -48.22,41.38 -54.22,57.11 -5.96,15.74 66.64,118.99 107.6,89.57 40.95,-29.42 63.14,-88.16 71.5,-91.86 8.33,-3.74 30.73,-20.25 30.73,-20.25l-39.97 -74.79z"/>
  <path class="fil12" d="M16121.63 12220.65c0,0 -118.75,98.46 -120.62,111.76 -1.83,13.3 4.38,19.5 15.91,10.76 11.54,-8.72 117.76,-91.76 117.76,-91.76 0,0 -118.99,140.54 -122.98,150.99 -2.32,6.06 9.07,18.76 15.7,14.67 6.67,-4.09 133.21,-136.42 133.21,-136.42 0,0 -110.84,131.45 -111.44,141.29 -0.53,8.61 12.8,17.89 21.77,8.71 8.96,-9.17 119.27,-125.13 119.27,-125.13 0,0 -74.19,100.9 -69.6,109.79 2.78,5.47 12.17,16.83 30.41,-9.84 18.27,-26.64 68.47,-84.81 68.47,-84.81l-97.86 -100.01z"/>
  <path class="fil16" d="M17544.1 12835.11l-349.71 0c0,0 -322.12,25.83 -347.94,-199.84 -25.86,-225.68 105.9,-350.98 105.9,-350.98 0,0 170.18,45.33 318.74,81.21 74.43,-15.81 164.07,-26.11 268.74,-23.43 0,0 629.82,208.11 610.87,317.68 0,0 -263.45,-140.87 -606.6,175.36z"/>
  <polygon class="fil88" points="17316.45,12444.31 17983.17,12434.54 17646.55,12605.42 "/>
  <path class="fil87" d="M17523.57 12359.15c0,0 -149.97,58.06 -333.8,5.57l-8.64 -68.65 378.53 21.06 -36.09 42.02z"/>
  <polygon class="fil89" points="17646.55,12605.42 17316.45,12477.57 17316.45,12444.31 17672.65,12572.82 "/>
  <path class="fil90" d="M17521.28 12390.9c-1.8,24.66 23.1,42.4 45.82,32.73l38.74 -16.54c11.64,-4.98 18.38,-17.22 16.36,-29.74 -16.12,-100.82 -50.69,-493.36 -0.17,-560.74 18.7,-24.91 30.37,-46.71 36.93,-65.79 33.38,86.04 74.86,196.85 91.37,256.47l315 419.03 105.59 26.77c-131.77,-317.53 -237.64,-485.77 -237.64,-485.77 -20.6,-55.35 -79.72,-222.92 -132.04,-372.15 -33.09,-94.23 -63.43,-181.12 -79.76,-227.82 -8.26,-23.64 -24.56,-43.64 -46.08,-56.48 -48.79,-29.18 -130.07,-75.11 -203.8,-110.92 -0.31,-0.14 -0.6,-0.24 -0.91,-0.42 -2.33,-1.13 -4.66,-2.29 -7.06,-3.39 -0.07,-0.03 -0.1,-0.03 -0.1,-0.03 -0.04,-0.04 -0.08,-0.04 -0.08,-0.04 140.2,212.09 85.52,811 57.86,1193.98 0,0.28 -0.03,0.6 -0.03,0.85z"/>
  <path class="fil90" d="M17000.93 11214.17c-44.91,6.95 -156.25,115.01 -215.34,224.12 -67.52,124.5 -136.17,266.28 -187.68,312.91 -94.65,85.76 -359.58,388.87 -372.21,381.53 -4.8,-2.82 72.67,90.53 82.51,94.9 4.94,2.15 435.51,-370.94 476.89,-427.78 39.19,-53.9 144.07,-280.07 175.43,-275.09 0,0 0,0.07 0.08,0.14 0,0.03 0.03,0.07 0.03,0.07 2.4,5.15 40.53,87.88 76.69,208.74 0.6,2.01 1.2,4.02 1.8,6.03 24.91,84.31 22.62,175.86 9.14,278.69 -10.19,77.69 -68.16,204.58 -103.12,266.39 -4.19,7.4 -3.14,21.52 1.41,32.28 0,0 0,0 0,0.03 2.72,6.42 6.67,11.64 11.47,13.37l126.44 46.85 29.7 11.01c21.38,7.93 43.81,3.77 60.57,-8.4 13.72,-9.95 23.71,-25.33 26.11,-43.92 28.11,-216.22 63.67,-437.13 92,-520.35 124.39,-365.12 -48.61,-639.51 -48.61,-639.51 0,0 -203.91,23.28 -243.31,37.99z"/>
  <polygon class="fil91" points="17646.55,12605.42 17844.84,12064.01 18484.15,12074.45 18295.16,12573.39 "/>
  <path class="fil92" d="M18049.42 12303.51c-19.51,39.02 -13.65,81.5 13.16,94.87 26.77,13.4 64.27,-7.34 83.78,-46.36 19.51,-38.98 13.62,-81.46 -13.16,-94.86 -26.77,-13.41 -64.31,7.37 -83.78,46.35z"/>
  <path class="fil85" d="M17375.51 10825.27c0,0 40.95,63.71 3.1,118.71 -37.85,55 9.56,109.01 17.75,167.14 8.22,58.14 -157.91,212.8 26.84,290.62 184.75,77.83 243.56,-50.8 196.43,-121.6 -47.13,-70.77 -80.57,-128.2 -84.56,-229.16 -4.02,-100.9 -37.22,-258.24 -159.56,-225.71z"/>
  <polygon class="fil93" points="16472.5,10560.79 16857.95,10560.79 16857.95,10899.03 16799.1,10840.16 16472.5,10840.16 "/>
  <path class="fil3" d="M14308.81 14848.03c0,0 -840.1,799.43 -431.45,1421.87 408.7,622.48 599.94,77.26 599.94,77.26 0,0 276.4,83.43 -133.85,-684.04 -193.35,-361.74 -34.64,-815.09 -34.64,-815.09z"/>
  <path class="fil4" d="M12755.46 13981.29c0,0 -641.74,754.17 216.25,1798.57 857.99,1044.39 725,1596.46 725,1596.46 0,0 1194.36,-1815.79 -941.25,-3395.03z"/>
  <path class="fil5" d="M13890.17 17061.04c399.27,80.71 76.2,-1080.24 -522.54,-1434.18 -598.73,-353.98 -1134.39,-388.48 -1469.77,-729.34 0,0 26.14,1765.9 1992.31,2163.52z"/>
  <path class="fil12" d="M11280.78 17570.24c0,0 18.31,-45.33 21.31,-52.21 2.99,-6.81 20.63,-17.96 41.94,-29 21.38,-11.01 55.17,-16.4 58.77,-14.36 3.64,1.98 8.22,2.33 12.91,11.93 4.66,9.52 3.32,20.17 3.32,20.17 0,0 11.33,9.07 8.75,22.09 0,0 10.23,9.03 4.83,23.28 0,0 9.77,9.1 4.98,19.12 0,0 -17.64,11.18 -23,17.25 -5.33,6.04 -43.61,26.81 -83.4,41.1 0,0 -42.16,0.81 -50.41,-59.37z"/>
  <path class="fil94" d="M11345.65 17545.51c0,0 0.46,24.55 -2.92,31.47 -3.32,6.98 49.81,22.43 49.81,22.43 0,0 -17.01,-53.69 -46.89,-53.9z"/>
  <polygon class="fil95" points="10353.78,19945.99 10377,19873.69 10475.21,19889.57 10460.53,19954.81 "/>
  <polygon class="fil96" points="11158.82,19937.44 11164.33,19977.17 11271.82,19959.24 11266.1,19899.91 "/>
  <path class="fil97" d="M10925.95 18823.87c0,0 -15.8,86.29 -34.22,182.07 -3.21,16.68 -6.42,33.65 -9.73,50.52 -17.96,92.28 -36.13,181.04 -42.83,199.42 -15.24,41.77 -344.45,644.99 -344.45,644.99 0,0 -134.62,-10.27 -139.67,-27.56 0,0 276.02,-655 274.43,-678.88 -1.52,-23.85 33.72,-695.33 33.72,-695.33 0,0 255.49,286 262.75,324.77z"/>
  <path class="fil97" d="M11076.38 18460.72c0,0 128.8,659.62 139.8,710.11 11.05,50.48 59.83,726.2 59.83,726.2 0,0 -28.96,59.68 -135.89,37.2 0,0 -145.8,-725.97 -158.07,-750.32 -47.7,-94.4 -281.73,-551.77 -304.42,-617.04 -22.68,-65.3 -16.01,-141.46 -16.01,-141.46 0,0 173.88,-97.72 414.76,35.31z"/>
  <path class="fil98" d="M11022.23 17606.36c0,0 56.51,140.83 70.69,136.7 14.22,-4.19 176.57,-194.83 176.57,-194.83 0,0 74.29,92.71 64.31,103.32 -13.83,14.82 -205.6,333.63 -231.99,327.88 -26.38,-5.75 -144.28,-200.63 -144.28,-200.63 0,0 -6.67,-146.97 64.7,-172.44z"/>
  <path class="fil99" d="M10780.61 17337.41c0,0 146.51,112 186.97,156.42 40.39,44.41 152.01,228.6 143.97,284.02 -30.83,212.44 -45.51,393.45 -46.46,538.37 -0.81,126.26 39.4,158.47 14.36,160.34 -28.75,2.19 -397.41,135.78 -451.98,152.05 0,0 35.77,-444.61 53.87,-495.9 18.13,-51.3 -57.96,-588.89 99.27,-795.3z"/>
  <path class="fil100" d="M11724.22 17125.03l32.84 165.6 32.88 165.63c0,0 -188.1,-58.88 -401.57,-16.48l-14.49 -73.06 -14.61 -73.48c213.5,-42.41 364.95,-168.21 364.95,-168.21z"/>
  <path class="fil35" d="M11164.33 19977.17c0,0 81.13,-15.69 83.99,-18.13 2.82,-2.51 20.25,-34.54 32.77,-28.97 12.56,5.61 12.74,44.59 24.98,51.19 12.28,6.63 109.12,72.03 121.04,83.97 11.89,11.92 85.27,4.89 93.66,25.6 8.43,20.71 9.1,69.65 -100.33,58.1 -109.43,-11.49 -234.38,6.28 -257.95,-6.63 -23.56,-12.91 -5.71,-133.63 1.84,-165.13z"/>
  <path class="fil35" d="M10352.48 19944.22c0,0 82.65,-2.55 85.83,-4.52 3.17,-1.97 25.5,-30.82 37.01,-23.27 11.5,7.51 5.43,46.02 16.43,54.53 11.08,8.47 96.24,88.58 106.05,102.23 9.84,13.7 83.36,18.5 88.37,40.3 5.01,21.76 -2.15,70.17 -108.3,41.27 -106.19,-28.86 -232.38,-31.3 -253.58,-47.81 -21.17,-16.57 15.73,-132.85 28.19,-162.73z"/>
  <path class="fil8" d="M10994.18 18491.27c0,0 9.88,40.18 25.72,48.9 15.84,8.71 -73.94,94.58 -73.94,94.58 0,0 -36.45,-79.59 -35.46,-87.63 1.02,-8.01 83.68,-55.85 83.68,-55.85z"/>
  <path class="fil101" d="M10715.52 17511.08c0,0 -105.13,500.17 -113.77,551.39 -8.15,48.47 308.29,511.21 308.29,511.21l105.2 -62.41c0,0 -255.3,-464.29 -254.92,-485.45 0.32,-21.21 122.52,-424.4 122.52,-424.4 0,0 51.09,-87.8 -39.51,-130.45 -90.59,-42.62 -127.81,40.11 -127.81,40.11z"/>
  <path class="fil102" d="M11055.85 18525.81c0,0 34.18,170.07 32.1,222.18 -2.12,52.07 -196.32,-81.99 -186.44,-133.81l154.34 -88.37z"/>
  <path class="fil12" d="M10780.61 17337.41c0,0 266.84,291.5 250.4,259.18 -58.6,-115.22 -99.48,-134.65 -98.64,-156.14 0.64,-16.47 7.06,-64.38 8.15,-80.43 2.08,-30.55 4.34,-55.39 4.34,-55.39 0,0 -132.5,-186.09 -126.64,-122.66 5.82,63.4 -37.61,155.44 -37.61,155.44z"/>
  <path class="fil12" d="M11034.75 16994.29c0,0 36.69,86.12 37.22,106.26 0.49,20.18 -4.59,35.63 -1.45,58.84 3.21,24.06 23.39,74.55 20.89,88.48 -3,16.9 -38.49,8.11 -43.4,35.91 -4.9,27.77 -30.72,79.98 -43.56,81.04 -33.06,2.71 -159.56,-48.86 -167.61,-75.32 -8.04,-26.5 -53.9,-174.06 -68.15,-202.14 -14.26,-28.08 222.84,-181.86 244.47,-137.45 21.59,44.38 21.59,44.38 21.59,44.38z"/>
  <path class="fil13" d="M10712.28 17058.18c-16.73,-73.06 67.27,-82.05 67.27,-82.05 0,0 54.68,-63.72 185.56,-56.13 130.88,7.55 110.92,178.36 110.92,178.36 0,0 -90.56,-13.54 -129.93,-3.56 0,0 -4.84,72.95 -0.53,91.02l-49.39 -4.41c0,0 5.5,-64.74 -18.17,-67.81 -23.71,-3.07 -31.68,137.06 -75.81,167.93 0,0 -0.46,-9.88 -5.96,-19.58l0 0c-8.82,-15.42 -22.51,-41.24 -34.29,-71.48 -19.26,-42.33 -41.1,-94.86 -49.67,-132.29z"/>
  <path class="fil12" d="M10910.89 17129.27c0,0 -18.34,-49.43 -61.77,-17.36 -31.58,23.35 0.92,106.75 31.64,106.33 30.73,-0.39 43.18,-45.79 30.13,-88.97z"/>
  <path class="fil103" d="M10829.68 17266.36c0,0 6.49,26.28 13.55,32.35 7.05,6.17 40.28,33.12 98,51.25l-5.15 51.72c0,0 -112.15,-43.25 -106.4,-135.32z"/>
  <polygon class="fil17" points="11305.79,17457.63 11305.79,17452.41 11303.78,17453.36 "/>
  <polygon class="fil18" points="11307.87,17462.04 11307.87,17451.44 11305.79,17452.41 11305.79,17457.63 "/>
  <polygon class="fil19" points="11309.92,17466.4 11309.92,17450.47 11307.87,17451.44 11307.87,17462.04 "/>
  <polygon class="fil20" points="11311.96,17470.73 11311.96,17449.51 11309.92,17450.47 11309.92,17466.4 "/>
  <polygon class="fil21" points="11314.02,17475.1 11314.02,17448.54 11311.96,17449.51 11311.96,17470.73 "/>
  <polygon class="fil22" points="11316.09,17479.49 11316.09,17447.57 11314.01,17448.55 11314.01,17475.08 "/>
  <polygon class="fil23" points="11318.1,17483.76 11318.1,17446.63 11316.09,17447.57 11316.09,17479.49 "/>
  <polygon class="fil24" points="11320.18,17488.18 11320.18,17445.65 11318.1,17446.63 11318.1,17483.76 "/>
  <polygon class="fil25" points="11322.19,17492.44 11322.19,17444.7 11320.18,17445.65 11320.18,17488.18 "/>
  <polygon class="fil26" points="11324.27,17496.86 11324.27,17443.72 11322.19,17444.7 11322.19,17492.44 "/>
  <polygon class="fil27" points="11326.31,17501.19 11326.31,17442.76 11324.27,17443.72 11324.27,17496.86 "/>
  <polygon class="fil28" points="11328.37,17505.56 11328.37,17441.79 11326.32,17442.76 11326.32,17501.21 "/>
  <polygon class="fil29" points="11330.41,17509.9 11330.41,17440.84 11328.37,17441.79 11328.37,17505.56 "/>
  <polygon class="fil30" points="11332.47,17514.27 11332.47,17439.87 11330.41,17440.84 11330.41,17509.9 "/>
  <polygon class="fil31" points="11334.5,17518.58 11334.5,17438.91 11332.46,17439.87 11332.46,17514.25 "/>
  <polygon class="fil32" points="11336.59,17523.02 11336.59,17437.93 11334.51,17438.91 11334.51,17518.6 "/>
  <polygon class="fil33" points="11338.6,17527.28 11338.6,17436.98 11336.59,17437.93 11336.59,17523.02 "/>
  <polygon class="fil34" points="11340.65,17531.64 11340.65,17436.02 11338.6,17436.98 11338.6,17527.28 "/>
  <polygon class="fil35" points="11342.68,17535.95 11342.68,17435.06 11340.64,17436.02 11340.64,17531.61 "/>
  <polygon class="fil36" points="11344.77,17540.38 11344.77,17434.08 11342.69,17435.06 11342.69,17535.97 "/>
  <polygon class="fil37" points="11346.82,17544.73 11346.82,17433.12 11344.77,17434.08 11344.77,17540.38 "/>
  <polygon class="fil38" points="11348.82,17548.98 11348.82,17432.18 11346.82,17433.12 11346.82,17544.73 "/>
  <polygon class="fil39" points="11350.92,17553.44 11350.92,17431.19 11348.83,17432.17 11348.83,17549 "/>
  <polygon class="fil40" points="11352.95,17557.75 11352.95,17433.68 11351.62,17430.86 11350.91,17431.19 11350.91,17553.42 "/>
  <polygon class="fil41" points="11355,17562.1 11355,17438.03 11352.96,17433.7 11352.96,17557.77 "/>
  <polygon class="fil42" points="11357.05,17566.45 11357.05,17442.38 11355,17438.03 11355,17562.1 "/>
  <polygon class="fil43" points="11359.09,17570.78 11359.09,17446.7 11357.05,17442.38 11357.05,17566.45 "/>
  <polygon class="fil44" points="11361.19,17575.24 11361.19,17451.16 11359.09,17446.7 11359.09,17570.78 "/>
  <polygon class="fil45" points="11363.17,17579.45 11363.17,17455.36 11361.18,17451.14 11361.18,17575.22 "/>
  <polygon class="fil46" points="11365.24,17583.84 11365.24,17459.75 11363.19,17455.4 11363.19,17579.49 "/>
  <polygon class="fil47" points="11367.31,17588.24 11367.31,17464.14 11365.23,17459.73 11365.23,17583.82 "/>
  <polygon class="fil48" points="11369.33,17592.52 11369.33,17468.43 11367.31,17464.14 11367.31,17588.24 "/>
  <polygon class="fil49" points="11371.41,17596.94 11371.41,17472.84 11369.32,17468.4 11369.32,17592.5 "/>
  <polygon class="fil50" points="11373.42,17601.21 11373.42,17477.1 11371.41,17472.84 11371.41,17596.94 "/>
  <polygon class="fil51" points="11375.5,17605.62 11375.5,17481.51 11373.42,17477.1 11373.42,17601.21 "/>
  <path class="fil52" d="M11377.54 17609.66l0 -123.82 -2.04 -4.33 0 124.11 0.63 1.34c0.44,0.94 0.91,1.84 1.41,2.7z"/>
  <path class="fil53" d="M11379.6 17612.85l0 -122.64 -2.06 -4.37 0 123.82c0.64,1.13 1.33,2.19 2.06,3.19z"/>
  <path class="fil54" d="M11381.63 17615.38l0 -120.87 -2.04 -4.32 0 122.64c0.65,0.89 1.33,1.75 2.04,2.55z"/>
  <path class="fil55" d="M11383.72 17617.49l0 -118.54 -2.08 -4.41 0 120.85c0.67,0.74 1.36,1.44 2.08,2.1z"/>
  <path class="fil56" d="M11385.73 17619.16l0 -115.95 -2.01 -4.26 0 118.54c0.65,0.6 1.32,1.15 2.01,1.67z"/>
  <path class="fil57" d="M11387.81 17620.6l0 -112.98 -2.08 -4.41 0 115.95c0.68,0.51 1.37,1 2.08,1.44z"/>
  <path class="fil58" d="M11389.82 17621.73l0 -109.84 -2.01 -4.27 0 112.98c0.66,0.41 1.33,0.78 2.01,1.13z"/>
  <path class="fil59" d="M11391.9 17622.68l0 -106.38 -2.08 -4.41 0 109.84c0.68,0.35 1.37,0.66 2.08,0.95z"/>
  <path class="fil60" d="M11393.96 17623.41l0 -102.74 -2.06 -4.37 0 106.38c0.68,0.28 1.36,0.51 2.06,0.73z"/>
  <polygon class="fil61" points="11395.99,17623.96 11395.99,17524.97 11393.95,17520.65 11393.95,17623.41 "/>
  <path class="fil62" d="M11398.05 17624.36l0 -95.02 -2.06 -4.37 0 98.99c0.68,0.16 1.37,0.3 2.06,0.4z"/>
  <path class="fil63" d="M11400.08 17624.59l0 -90.94 -2.04 -4.33 0 95.03c0.67,0.11 1.35,0.19 2.04,0.24z"/>
  <polygon class="fil64" points="11402.14,17624.68 11402.14,17538.02 11400.09,17533.67 11400.09,17624.59 "/>
  <polygon class="fil65" points="11404.21,17624.62 11404.21,17542.41 11402.13,17538 11402.13,17624.68 "/>
  <polygon class="fil66" points="11406.23,17624.45 11406.23,17546.69 11404.21,17542.41 11404.21,17624.62 "/>
  <polygon class="fil67" points="11408.31,17624.13 11408.31,17551.11 11406.23,17546.69 11406.23,17624.45 "/>
  <polygon class="fil68" points="11410.32,17623.7 11410.32,17555.37 11408.31,17551.11 11408.31,17624.13 "/>
  <polygon class="fil69" points="11412.4,17623.13 11412.4,17559.78 11410.32,17555.37 11410.32,17623.7 "/>
  <polygon class="fil70" points="11414.44,17622.45 11414.44,17564.11 11412.4,17559.78 11412.4,17623.13 "/>
  <polygon class="fil71" points="11416.5,17621.64 11416.5,17568.48 11414.44,17564.11 11414.44,17622.45 "/>
  <polygon class="fil72" points="11418.53,17620.72 11418.53,17572.78 11416.49,17568.46 11416.49,17621.64 11418.15,17620.9 "/>
  <polygon class="fil73" points="11420.59,17619.74 11420.59,17577.15 11418.54,17572.81 11418.54,17620.71 "/>
  <polygon class="fil74" points="11422.62,17618.77 11422.62,17581.46 11420.58,17577.13 11420.58,17619.74 "/>
  <polygon class="fil75" points="11424.71,17617.78 11424.71,17585.89 11422.63,17581.48 11422.63,17618.77 "/>
  <polygon class="fil76" points="11426.72,17616.82 11426.72,17590.16 11424.71,17585.89 11424.71,17617.78 "/>
  <polygon class="fil77" points="11428.8,17615.84 11428.8,17594.57 11426.72,17590.16 11426.72,17616.82 "/>
  <polygon class="fil78" points="11430.81,17614.88 11430.81,17598.83 11428.8,17594.57 11428.8,17615.84 "/>
  <polygon class="fil79" points="11432.89,17613.89 11432.89,17603.24 11430.81,17598.83 11430.81,17614.88 "/>
  <polygon class="fil80" points="11434.93,17612.92 11434.93,17607.57 11432.9,17603.26 11432.9,17613.89 "/>
  <polygon class="fil81" points="11434.94,17607.59 11434.94,17612.91 11436.99,17611.94 "/>
  <path class="fil104" d="M11397.09 17477.32c0,0 -53.41,29.31 -49.74,38.52 3.67,9.17 10.54,10.34 10.54,10.34l-16.51 22.01c0,0 -2.68,20.78 20.71,17.64 0,0 -4.51,19.15 17.71,13.44 0,0 2.65,13.93 13.41,13.12 10.79,-0.84 44.38,-21.13 44.38,-21.13 0,0 5.15,-7.48 -4.98,-19.12 0,0 5.96,-13.37 -4.83,-23.28 0,0 3.03,-11.43 -8.75,-22.09 0,0 4.94,-26.07 -16.23,-32.1 0,0 -3.45,1.41 -5.71,2.65z"/>
  <polygon class="fil17" points="11214.92,17340.06 11214.92,17322.57 11211.6,17323.33 "/>
  <polygon class="fil18" points="11218.26,17356.89 11218.26,17321.81 11214.91,17322.58 11214.91,17340.01 "/>
  <polygon class="fil19" points="11221.65,17373.97 11221.65,17321.04 11218.27,17321.81 11218.27,17356.94 "/>
  <polygon class="fil20" points="11224.96,17390.64 11224.96,17320.28 11221.65,17321.04 11221.65,17373.97 "/>
  <polygon class="fil21" points="11228.32,17407.57 11228.32,17319.52 11224.97,17320.28 11224.97,17390.69 "/>
  <polygon class="fil22" points="11231.68,17424.5 11231.68,17318.75 11228.32,17319.52 11228.32,17407.57 "/>
  <polygon class="fil23" points="11235.02,17441.33 11235.02,17317.99 11231.67,17318.75 11231.67,17424.45 "/>
  <polygon class="fil24" points="11238.34,17458.06 11238.34,17317.23 11235.02,17317.99 11235.02,17441.33 "/>
  <polygon class="fil25" points="11241.69,17470.13 11241.69,17316.47 11238.34,17317.23 11238.34,17458.06 11240.77,17470.3 "/>
  <polygon class="fil26" points="11245.04,17469.5 11245.04,17315.71 11241.69,17316.47 11241.69,17470.13 "/>
  <polygon class="fil27" points="11248.43,17468.87 11248.43,17314.93 11245.04,17315.71 11245.04,17469.5 "/>
  <polygon class="fil28" points="11251.73,17468.25 11251.73,17314.18 11248.43,17314.93 11248.43,17468.87 "/>
  <polygon class="fil29" points="11255.11,17467.62 11255.11,17313.41 11251.74,17314.18 11251.74,17468.25 "/>
  <polygon class="fil30" points="11258.44,17467 11258.44,17312.65 11255.1,17313.41 11255.1,17467.63 "/>
  <polygon class="fil31" points="11261.75,17466.39 11261.75,17311.9 11258.45,17312.65 11258.45,17467 "/>
  <polygon class="fil32" points="11265.12,17465.76 11265.12,17311.13 11261.76,17311.9 11261.76,17466.38 "/>
  <polygon class="fil33" points="11268.46,17465.13 11268.46,17310.37 11265.11,17311.13 11265.11,17465.76 "/>
  <polygon class="fil34" points="11271.81,17464.51 11271.81,17309.6 11268.47,17310.37 11268.47,17465.13 "/>
  <polygon class="fil35" points="11275.17,17463.88 11275.17,17308.84 11271.82,17309.6 11271.82,17464.51 "/>
  <polygon class="fil36" points="11278.52,17463.26 11278.52,17308.08 11275.17,17308.84 11275.17,17463.88 "/>
  <polygon class="fil37" points="11281.88,17462.63 11281.88,17307.31 11278.52,17308.08 11278.52,17463.26 "/>
  <polygon class="fil38" points="11285.22,17462.01 11285.22,17306.55 11281.87,17307.31 11281.87,17462.63 "/>
  <polygon class="fil39" points="11288.53,17461.39 11288.53,17305.79 11285.22,17306.55 11285.22,17462.01 "/>
  <polygon class="fil40" points="11291.9,17460.76 11291.9,17305.03 11288.54,17305.79 11288.54,17461.39 "/>
  <polygon class="fil41" points="11295.24,17460.14 11295.24,17304.26 11291.89,17305.03 11291.89,17460.76 "/>
  <polygon class="fil42" points="11298.55,17459.52 11298.55,17303.51 11295.24,17304.26 11295.24,17460.14 "/>
  <polygon class="fil43" points="11301.92,17458.89 11301.92,17302.74 11298.56,17303.51 11298.56,17459.52 "/>
  <polygon class="fil44" points="11305.26,17458.27 11305.26,17301.98 11301.91,17302.74 11301.91,17458.89 "/>
  <polygon class="fil45" points="11308.61,17457.64 11308.61,17301.22 11305.26,17301.98 11305.26,17458.27 "/>
  <polygon class="fil46" points="11311.96,17457.02 11311.96,17300.45 11308.61,17301.22 11308.61,17457.64 "/>
  <polygon class="fil47" points="11315.31,17456.39 11315.31,17299.69 11311.96,17300.45 11311.96,17457.02 "/>
  <polygon class="fil48" points="11318.68,17455.76 11318.68,17298.92 11315.31,17299.69 11315.31,17456.39 "/>
  <polygon class="fil49" points="11321.97,17455.15 11321.97,17298.17 11318.67,17298.92 11318.67,17455.76 "/>
  <polygon class="fil50" points="11325.33,17454.52 11325.33,17297.4 11321.98,17298.17 11321.98,17455.15 "/>
  <polygon class="fil51" points="11328.7,17453.89 11328.7,17296.64 11325.33,17297.4 11325.33,17454.52 "/>
  <polygon class="fil52" points="11332.03,17453.27 11332.03,17295.88 11328.68,17296.64 11328.68,17453.9 "/>
  <polygon class="fil53" points="11335.36,17452.65 11335.36,17295.12 11332.04,17295.87 11332.04,17453.27 "/>
  <polygon class="fil54" points="11338.73,17452.02 11338.73,17294.35 11335.35,17295.12 11335.35,17452.65 "/>
  <polygon class="fil55" points="11342.1,17451.39 11342.1,17293.58 11338.74,17294.35 11338.74,17452.02 "/>
  <polygon class="fil56" points="11345.44,17450.77 11345.44,17292.82 11342.09,17293.58 11342.09,17451.39 "/>
  <polygon class="fil57" points="11348.75,17450.15 11348.75,17292.07 11345.44,17292.82 11345.44,17450.77 "/>
  <polygon class="fil58" points="11352.12,17449.52 11352.12,17291.3 11348.76,17292.06 11348.76,17450.15 "/>
  <polygon class="fil59" points="11355.46,17448.9 11355.46,17290.54 11352.11,17291.3 11352.11,17449.52 "/>
  <polygon class="fil60" points="11358.77,17448.28 11358.77,17289.78 11355.46,17290.54 11355.46,17448.9 "/>
  <polygon class="fil61" points="11362.14,17447.65 11362.14,17289.01 11358.78,17289.78 11358.78,17448.28 "/>
  <polygon class="fil62" points="11365.48,17447.03 11365.48,17288.25 11362.13,17289.02 11362.13,17447.65 "/>
  <polygon class="fil63" points="11368.87,17446.4 11368.87,17287.48 11365.48,17288.25 11365.48,17447.03 "/>
  <polygon class="fil64" points="11372.17,17445.78 11372.17,17286.73 11368.87,17287.48 11368.87,17446.4 "/>
  <polygon class="fil65" points="11375.53,17445.15 11375.53,17285.96 11372.18,17286.72 11372.18,17445.78 "/>
  <polygon class="fil66" points="11378.9,17444.53 11378.9,17285.19 11375.53,17285.96 11375.53,17445.15 "/>
  <polygon class="fil67" points="11382.23,17443.9 11382.23,17284.43 11378.88,17285.2 11378.88,17444.53 "/>
  <polygon class="fil68" points="11385.54,17443.29 11385.54,17283.68 11382.24,17284.43 11382.24,17443.9 "/>
  <polygon class="fil69" points="11388.91,17442.66 11388.91,17282.91 11385.55,17283.68 11385.55,17443.28 "/>
  <polygon class="fil70" points="11392.25,17442.03 11392.25,17282.15 11388.9,17282.91 11388.9,17442.66 "/>
  <polygon class="fil71" points="11395.6,17441.41 11395.6,17281.39 11392.26,17282.15 11392.26,17442.03 "/>
  <polygon class="fil72" points="11398.96,17440.78 11398.96,17283.62 11398.39,17280.75 11395.61,17281.38 11395.61,17441.41 "/>
  <polygon class="fil73" points="11402.31,17440.16 11402.31,17300.47 11398.96,17283.62 11398.96,17440.78 "/>
  <polygon class="fil74" points="11405.67,17439.53 11405.67,17317.37 11402.31,17300.47 11402.31,17440.16 "/>
  <polygon class="fil75" points="11408.97,17438.91 11408.97,17333.96 11405.66,17317.32 11405.66,17439.53 "/>
  <polygon class="fil76" points="11412.33,17438.29 11412.33,17350.86 11408.98,17334.01 11408.98,17438.91 "/>
  <polygon class="fil77" points="11415.69,17437.66 11415.69,17367.76 11412.33,17350.86 11412.33,17438.29 "/>
  <polygon class="fil78" points="11418.99,17437.04 11418.99,17384.36 11415.68,17367.71 11415.68,17437.66 "/>
  <polygon class="fil79" points="11422.34,17436.42 11422.34,17401.21 11419,17384.41 11419,17437.04 "/>
  <polygon class="fil80" points="11425.74,17435.79 11425.74,17418.31 11422.35,17401.26 11422.35,17436.42 "/>
  <polygon class="fil81" points="11429.08,17435.16 11429.08,17435.11 11425.73,17418.26 11425.73,17435.79 "/>
  <path class="fil12" d="M11303.67 17516.97c0,0 41.81,-1.16 64.91,8.15 5.19,2.15 9.88,5.15 9.88,10.83 0,5.61 -8.18,12.8 -26.25,14.25 -18.09,1.45 -40.78,11.57 -40.78,11.57 0,0 -19.01,-3.98 -7.76,-44.8z"/>
  <path class="fil105" d="M10891.73 19005.94c-3.21,16.68 -6.42,33.65 -9.73,50.52l-106.93 -283.04c14.11,28.58 116.66,232.52 116.66,232.52z"/>
  <path class="fil16" d="M5007.72 15633.88l-1687.13 0c-124.63,0 -225.7,-101 -225.7,-225.64l0 -2665.17c0,-124.63 101.07,-225.7 225.7,-225.7l1687.13 0c124.63,0 225.71,101.07 225.71,225.7l0 2665.17c0,124.64 -101.08,225.64 -225.71,225.64z"/>
  <polygon class="fil106" points="4895.43,15373.28 5006.24,15373.28 5006.24,14530.03 4895.43,14530.03 "/>
  <polygon class="fil106" points="4676.53,15373.28 4787.31,15373.28 4787.31,14624.54 4676.53,14624.54 "/>
  <polygon class="fil106" points="4438.65,15373.28 4549.46,15373.28 4549.46,14747.45 4438.65,14747.45 "/>
  <polygon class="fil106" points="4194.39,15373.28 4305.2,15373.28 4305.2,14902.46 4194.39,14902.46 "/>
  <polygon class="fil106" points="3533.25,14802.56 3509.26,14793.98 3718.17,14207.81 4171.28,14088 4334.12,13444.61 4683.83,13290.3 4762.11,12790.03 4787.3,12793.98 4706.83,13307.98 4355.82,13462.95 4192.34,14108.78 3737.68,14229.08 "/>
  <path class="fil16" d="M4234.46 14055.34c23.78,29.07 19.48,71.89 -9.59,95.71 -29.07,23.74 -71.93,19.43 -95.71,-9.67 -23.78,-29.03 -19.44,-71.9 9.63,-95.64 29.07,-23.74 71.9,-19.47 95.67,9.6z"/>
  <path class="fil106" d="M4146.87 14055.62c-23.6,19.3 -27.13,54.12 -7.83,77.72 19.29,23.6 54.15,27.09 77.71,7.83 23.61,-19.3 27.13,-54.19 7.84,-77.75 -19.27,-23.57 -54.15,-27.1 -77.72,-7.8zm86.04 105.27c-34.46,28.19 -85.44,23.07 -113.59,-11.43 -28.19,-34.47 -23.07,-85.44 11.39,-113.63 34.47,-28.15 85.45,-23.04 113.63,11.43 28.15,34.47 23.07,85.44 -11.43,113.63z"/>
  <path class="fil16" d="M4399.46 13414.62c23.78,29.11 19.47,71.93 -9.6,95.68 -29.1,23.77 -71.96,19.47 -95.67,-9.6 -23.78,-29.07 -19.47,-71.93 9.6,-95.67 29.06,-23.78 71.89,-19.48 95.67,9.59z"/>
  <path class="fil106" d="M4311.86 13414.9c-23.6,19.27 -27.12,54.16 -7.83,77.72 19.3,23.6 54.15,27.09 77.75,7.83 23.57,-19.29 27.1,-54.15 7.8,-77.75 -19.26,-23.6 -54.15,-27.09 -77.72,-7.8zm86.05 105.31c-34.47,28.15 -85.45,23.04 -113.63,-11.43 -28.16,-34.5 -23.04,-85.48 11.43,-113.63 34.46,-28.19 85.4,-23.07 113.59,11.39 28.19,34.51 23.11,85.48 -11.39,113.67z"/>
  <path class="fil16" d="M4743.73 13255.91c23.78,29.07 19.48,71.89 -9.63,95.67 -29.07,23.78 -71.89,19.47 -95.67,-9.59 -23.74,-29.07 -19.44,-71.94 9.63,-95.71 29.07,-23.75 71.9,-19.44 95.67,9.63z"/>
  <path class="fil106" d="M4656.1 13256.15c-23.56,19.3 -27.05,54.16 -7.76,77.76 19.26,23.6 54.12,27.09 77.72,7.79 23.6,-19.26 27.06,-54.15 7.8,-77.71 -19.26,-23.6 -54.15,-27.1 -77.76,-7.84zm86.08 105.31c-34.46,28.19 -85.44,23.04 -113.63,-11.43 -28.15,-34.47 -23.03,-85.44 11.43,-113.6 34.5,-28.18 85.45,-23.07 113.63,11.4 28.19,34.47 23.04,85.44 -11.43,113.63z"/>
  <path class="fil16" d="M3783.12 14181.17c23.78,29.11 19.47,71.9 -9.59,95.68 -29.11,23.77 -71.94,19.47 -95.71,-9.6 -23.78,-29.07 -19.48,-71.93 9.59,-95.67 29.11,-23.78 71.93,-19.48 95.71,9.59z"/>
  <path class="fil106" d="M3695.53 14181.46c-23.61,19.26 -27.13,54.11 -7.84,77.71 19.27,23.57 54.16,27.1 77.72,7.83 23.6,-19.29 27.13,-54.15 7.83,-77.75 -19.26,-23.6 -54.15,-27.09 -77.71,-7.79zm86.04 105.3c-34.47,28.15 -85.44,23.04 -113.6,-11.47 -28.18,-34.43 -23.07,-85.44 11.4,-113.59 34.46,-28.15 85.44,-23.07 113.63,11.39 28.15,34.51 23.03,85.48 -11.43,113.67z"/>
  <path class="fil107" d="M3954.04 13543.03l-583.14 0c-26.95,0 -48.79,-21.87 -48.79,-48.82l0 -43.43c0,-26.95 21.84,-48.79 48.79,-48.79l583.14 0c26.95,0 48.83,21.84 48.83,48.79l0 43.43c0,26.95 -21.88,48.82 -48.83,48.82z"/>
  <path class="fil107" d="M3954.04 13296.48l-583.14 0c-26.95,0 -48.79,-21.84 -48.79,-48.83l0 -43.39c0,-26.95 21.84,-48.82 48.79,-48.82l583.14 0c26.95,0 48.83,21.87 48.83,48.82l0 43.39c0,26.99 -21.88,48.83 -48.83,48.83z"/>
  <path class="fil13" d="M2833.48 13656.49c0,0 -19.72,194.66 16.23,243.48 0,0 -95.22,-20.74 -117.27,-53.51 -22.05,-32.78 101.04,-189.97 101.04,-189.97z"/>
  <path class="fil12" d="M3428.05 14278.12c0,0 34.54,-23.22 39.93,-26.57 5.37,-3.38 23.11,-2.86 43.43,-0.42 20.32,2.4 46.67,14.78 48.26,17.96 1.59,3.1 4.69,5.57 3.42,14.53 -1.3,8.96 -7.3,15.84 -7.3,15.84 0,0 3.6,11.78 -4.41,19.68 0,0 2.89,11.26 -7.73,18.77 0,0 2.54,11.04 -5.6,15.84 0,0 -17.78,-0.56 -24.42,1.17 -6.66,1.69 -43.56,-1.94 -78.42,-10.87 0,0 -38.91,-8.36 -7.16,-65.93z"/>
  <path class="fil94" d="M3486.86 14294.2c0,0 -10.41,18.17 -15.91,21.8 -5.51,3.6 26.6,38.14 26.6,38.14 0,0 11,-46.67 -10.69,-59.94z"/>
  <path class="fil12" d="M3407.59 14281.47c0,0 21.73,-2.4 35.17,-8.61 13.41,-6.21 -2.5,67.66 -2.5,67.66 0,0 -32.57,-22.47 -53.8,-23.07 -21.24,-0.7 21.13,-35.98 21.13,-35.98z"/>
  <path class="fil108" d="M2507.11 16248.8c0,0 67.94,99.31 91.62,120.41 0,0 47.42,24.59 48.87,44.24 2.79,37.14 4.76,59.05 -57.6,60.78 -62.37,1.76 -101.33,-0.18 -112.77,-37.92 -11.39,-37.79 -31.1,-67.42 -31.1,-67.42l-4.75 98.28 -14.06 0c0,0 -6.29,-98.49 -7.18,-112.57 -0.85,-14.04 -10.09,-68.05 19.57,-92 29.64,-23.89 67.4,-13.8 67.4,-13.8z"/>
  <path class="fil108" d="M2607.77 16374.29c0,0 -33.7,9.52 -73.79,-0.57 -40.1,-10.09 -78.59,-106.08 -90.3,-114.09l-10.41 -38.73 78.16 0c0,0 0.67,28.64 13.28,53.2 12.63,24.52 83.06,100.19 83.06,100.19z"/>
  <path class="fil108" d="M2948.1 16211.69c0,0 10.19,24.1 29.42,49.18 14.14,18.38 57.99,93.98 77.33,99.24 19.29,5.25 79.02,15.8 84.27,49.17 5.3,33.38 7.91,57.08 -50.94,59.73 -58.84,2.61 -97.47,6.14 -125.59,-35.14 -28.08,-41.27 -72.88,-71.15 -72.88,-71.15l0 107.7 -22.82 0c0,0 -10.52,-112.08 -16.69,-119.95 -6.14,-7.93 -21.94,-93.98 32.49,-138.78 54.47,-44.8 65.41,0 65.41,0z"/>
  <path class="fil108" d="M3054.85 16360.11c0,0 -52.71,13.15 -72.92,0 -20.18,-13.16 -88.87,-129.23 -111.62,-136.18 0,0 22.05,-44.73 77.79,-12.24 0,0 91.79,129.08 106.75,148.42z"/>
  <path class="fil109" d="M2477.19 14598.9c0,0 -74.3,96.59 -94.45,211.24 -20.16,114.58 11.92,499.22 11.03,555.87 -0.87,56.66 -49.96,232.91 -39.46,339.59 10.55,106.71 65.73,552.09 65.73,552.09l128.74 -2.36c0,0 -25.8,-480.55 -19.21,-525.32 6.57,-44.8 27.56,-235.34 30.18,-253.82 2.65,-18.42 146.66,-506.1 146.66,-588.72 0,-82.62 -50.06,-423.33 -229.22,-288.57z"/>
  <path class="fil109" d="M2850.45 14636.68c0,0 122.06,465.88 136.52,530.44 14.5,64.52 43.46,148.83 42.16,160.69 -1.31,11.81 -15.35,210.75 -15.35,210.75l-34.71 677.08 -128.62 0c0,0 -41.28,-430.77 -47.91,-517.7 -6.56,-86.92 47.45,-221.3 34.25,-258.2 -13.15,-36.86 -212.09,-462.31 -212.09,-462.31 0,0 -150.57,-475.97 225.75,-340.75z"/>
  <path class="fil90" d="M2812.66 13939.38c0,0 48.79,4.62 85.69,44.13 36.9,39.51 71.51,102.55 81.18,123.62 9.63,21.06 145.06,216.42 152.12,220.8 7.02,4.37 66.14,-11.18 113.59,-15.14 77.4,-6.45 193.15,-45.86 193.15,-45.86l17.18 87.46c0,0 -284.7,91.83 -350.38,75.67 -80.37,-19.79 -265.29,-257.07 -265.29,-257.07 0,0 -137.87,-161.57 -27.24,-233.61z"/>
  <path class="fil90" d="M2727.47 13905.16c0,0 63.22,29.84 85.19,34.22 21.98,4.41 107.14,115.08 122.07,155.47 14.92,40.39 0,100.96 -30.73,172.08 -30.76,71.16 -1.73,94.87 -15.81,166.02 -14.04,71.12 -14.04,265.04 -11.39,304.55 2.61,39.52 -406.55,114.06 -488.22,42.05 0,0 55.26,-182.28 120.76,-250.71 14.13,-14.82 12.65,-113.49 2.99,-138.05 -9.67,-24.58 -118.56,-208.13 -118.56,-208.13 0,0 -8.01,-186.17 39.5,-223.07 41.27,-32.06 153.79,-43.49 173.98,-50.51 20.21,-7.02 78.98,-10.09 120.22,-3.92z"/>
  <path class="fil110" d="M2747.68 14046.09l38.42 -44.97 -33.37 -118.47c0,0 -11.19,65.97 -5.05,163.44z"/>
  <path class="fil12" d="M2506.83 13939.38c0,0 -79.69,-22.83 -125.37,65.02 -45.66,87.8 -34.24,135.22 -44.79,174.73 -10.5,39.54 -52.66,303.84 -55.3,315.27 -2.64,11.43 -43.02,145.81 -37.78,187.05 5.28,41.27 43.06,353.9 41.31,364.45 -1.76,10.55 72.86,-10.09 72.86,-10.09 0,0 -3.06,-319.23 -0.42,-345.58 2.62,-26.32 5.24,-164.64 25.02,-200.24 19.77,-35.56 68.48,-252.9 79.03,-275.27 10.54,-22.4 112.62,-246.8 45.44,-275.34z"/>
  <path class="fil12" d="M2757.67 13832.17c0,0 -12.6,115.99 -9.99,153.78 0,0 -65.72,65.82 -140.43,-76.87 0,0 31.46,-58.81 7.79,-138.93 -23.66,-80.15 142.63,62.02 142.63,62.02z"/>
  <polygon class="fil12" points="2747.68,13985.95 2747.68,14046.09 2677.06,13983.51 "/>
  <polygon class="fil110" points="2747.68,14046.09 2716.29,14007.25 2610.52,13901.84 2570.91,13919.45 "/>
  <polygon class="fil111" points="2786.1,14001.12 2834.54,14014.49 2752.73,13882.65 "/>
  <polygon class="fil111" points="2716.29,14007.25 2672.05,14078.13 2569.29,13916.91 2613.31,13894.51 "/>
  <path class="fil110" d="M2941.57 14293.18c0,0 15.8,-105.2 -1.02,-169.16 0,0 -9.28,51.61 -31.93,131.98l32.95 37.18z"/>
  <path class="fil110" d="M2450.43 14279.21c0,0 43.73,-144.64 46.3,-152.58 0,0 -2.99,132.93 -19.73,198.72 0,0 -16.1,-28.08 -26.57,-46.14z"/>
  <polygon class="fil112" points="4078.89,13554.36 3390.87,14421.2 3414.86,14439.72 "/>
  <path class="fil104" d="M3554.38 14268.2c0,0 -51.61,-4.86 -53.45,3.39 -1.8,8.18 2.54,12.31 2.54,12.31l-22.19 7.66c0,0 -11.81,13.33 6.14,22.33 0,0 -12.27,11.29 6.11,17.92 0,0 -4.8,11.04 3.17,15.63 8.01,4.55 41.35,6.31 41.35,6.31 0,0 7.19,-2.78 5.6,-15.84 0,0 10.62,-6.59 7.73,-18.77 0,0 7.66,-6.56 4.41,-19.68 0,0 15.91,-16.05 3.88,-30.37 0,0 -3.1,-0.71 -5.29,-0.89z"/>
  <path class="fil12" d="M3469.64 14251.52c0,0 29.99,19.15 41.81,36.76 2.64,4.02 4.51,8.36 1.83,12.31 -2.72,3.98 -11.92,5.15 -25.33,-2.44 -13.44,-7.65 -34.29,-11.36 -34.29,-11.36 0,0 -11.5,-11.85 15.98,-35.27z"/>
  <path class="fil12" d="M2704.36 13437.38c0,0 116.42,-3 137.8,134.79 21.45,137.83 -28.05,258.91 -47.45,278.31 -19.44,19.4 -135.82,4.69 -163.23,-66.89 -27.47,-71.58 -67.59,-123.75 -61.57,-185.31 6.03,-61.56 -8.68,-163.23 134.45,-160.9z"/>
  <path class="fil13" d="M2847.13 13624.35c0,0 31.19,-171.91 -123.37,-202.67 -154.5,-30.76 -208.7,74.93 -223.4,137.79 -14.76,62.9 2.67,240.17 2.67,240.17 0,0 103.02,90.32 164.54,113.74 0,0 -51.51,-188.67 -32.11,-323.82 0,0 125.59,19.73 208.95,-0.84 0,0 2.51,28.22 2.72,35.63z"/>
  <path class="fil14" d="M2755.02 13858.06c0,0 -40.43,-0.28 -95.39,-36.01 0,0 38.66,48.61 92.6,66.39 0,0 3.18,-24.2 2.79,-30.38z"/>
  <polygon class="fil113" points="2579.51,15078.11 2129.94,15151.52 2075.67,14819.03 2525.23,14745.62 "/>
  <path class="fil12" d="M2269.35 15145.74c0,0 -7.07,-11.47 -7.67,-17.99 0,0 -0.29,-11.93 -0.98,-20.43 -0.23,-2.68 -0.48,-5.01 -0.81,-6.49 -1.35,-6.24 -6.17,-19.54 -5.25,-35.42 0.98,-15.87 22.64,-83.33 22.64,-83.33l39.8 1.38 37.44 -4.06c0,0 45.22,86.36 46.06,101.22 0.06,1.44 0.1,2.92 0,4.3 -0.52,12.66 -6.24,21.87 -7.27,28.5 -0.37,2.44 -5.93,26.32 -12.47,29.64 -9.1,4.55 -17.27,3.98 -23.29,0.53 0,0 -18.23,8.15 -31.19,4.62 0,0 -16.52,8.04 -31.41,-0.95 0,0 -17.7,6.31 -25.6,-1.52z"/>
  <path class="fil90" d="M2506.83 13939.38c0,0 -79.69,-22.83 -125.37,65.02 -45.66,87.8 -45.41,125.27 -51.54,168.13 -5.76,40.53 -61.43,281.02 -64.08,292.45 -2.62,11.43 -20.94,161.75 -22.25,216.47 -0.97,41.63 8.79,314.39 7.03,324.94 -1.75,10.55 126.13,-18.45 126.13,-18.45 0,0 -14.17,-251.57 -11.51,-277.92 2.6,-26.35 8.23,-157.69 21.11,-196.32 15.12,-45.29 74.83,-273.75 85.37,-296.16 10.54,-22.4 102.29,-249.62 35.11,-278.16z"/>
  <path class="fil114" d="M6625.7 16303.87l8.29 -77.19c0,0 -108.87,-0.81 -121.6,8.37 0,0 9.24,64.84 10.37,74.54 1.2,9.77 102.94,-5.72 102.94,-5.72z"/>
  <path class="fil115" d="M6440.67 16465.27c129.54,-1.1 192.01,7.76 205.88,-13.27 13.9,-20.99 -20.08,-155.04 -20.08,-155.04 0,0 -30.69,11.15 -104.77,4.41 0,0 -32.24,39.09 -63.43,56.12 -31.19,17.01 -80.22,23.78 -98.67,41.39 -13.27,12.73 -48.47,67.52 81.07,66.39z"/>
  <path class="fil114" d="M5896.47 16303.87l8.22 -77.19c0,0 -108.87,-0.81 -121.57,8.37 0,0 9.21,64.84 10.41,74.54 1.13,9.77 102.94,-5.72 102.94,-5.72z"/>
  <path class="fil115" d="M5711.37 16465.27c129.5,-3.39 192.02,7.76 205.88,-13.27 13.9,-20.99 -20.07,-155.04 -20.07,-155.04 0,0 -28.9,11.92 -104.74,4.41 0,0 -32.28,39.09 -63.47,56.12 -31.15,17.01 -145.94,31.01 -164.39,48.65 -13.34,12.7 -35.46,63.93 146.79,59.13z"/>
  <path class="fil6" d="M6476.23 14560.97c0,0 54.15,160.91 47.02,299.58 -7.12,138.64 28.01,290.41 42.37,435.26 16.02,161.47 81.6,543.77 83.96,630.13 2.4,86.43 -10.19,362.23 -10.19,362.23l-131.2 3.07c0,0 -110.21,-668.37 -138.71,-736.56 -28.54,-68.23 -170.11,-554.43 -174.84,-608.97 -4.76,-54.57 281.59,-384.74 281.59,-384.74z"/>
  <path class="fil6" d="M5924.62 14589.62c0,0 -72.07,380.05 -81.56,464.89 -9.52,84.88 -15.84,410.74 -20.6,463.76 -4.76,53.06 -31.75,694.16 -57.08,772.97l167.74 0c0,0 128.73,-466.09 128.73,-686.57 0,-220.49 99.49,-479.36 163.73,-624.84 64.2,-145.49 211.17,-148.95 250.65,-418.86 0,0 -498.13,-56.97 -551.61,28.65z"/>
  <path class="fil12" d="M6265.51 13290.73c0,0 -132.22,-49.39 -193.14,51.26 -61,100.64 -55.11,302.15 11.53,326.91 66.68,24.8 166.8,11.82 200.87,-51.15 34.15,-62.97 64.95,-154.02 63.47,-214.88 -1.48,-60.85 -47.98,-94.57 -82.73,-112.14z"/>
  <path class="fil12" d="M6106.09 13662.73c0,0 5.36,34.68 -3.49,51.72 -8.82,17.07 166.33,17.53 166.33,17.53 0,0 14.19,-92.85 41.17,-171.31 26.96,-78.49 -204.01,102.06 -204.01,102.06z"/>
  <path class="fil116" d="M6310.1 13560.67c0,0 -12.1,19.9 -61.42,12.17 -49.35,-7.72 -109.57,-73.37 -130.17,-80.57 -20.6,-7.23 -20.74,-19.3 -20.74,-19.3l-12.95 18.8 -21.87 1.42c0,0 19.96,-58.74 -10.16,-82.7 -30.09,-23.95 31.25,-190.07 189.51,-134.76 0,0 113.42,22.41 120.26,91.34 7.3,73.38 -25.26,159.14 -52.46,193.6z"/>
  <path class="fil117" d="M6092.23 13712.4c0,0 0.56,-32.63 15.34,-35.73 14.78,-3.14 163.2,-17.43 181.37,-10.27l0 37.99c0,0 -35,21.52 -196.71,8.01z"/>
  <path class="fil12" d="M6100.98 13447.82c2.82,-11.61 32.24,-44.73 43.56,-9.24 11.29,35.45 -17.07,83.18 -32.87,79.09 -15.81,-4.09 -17.68,-40.46 -10.69,-69.85z"/>
  <path class="fil67" d="M6092.23 13712.4c0,0 -81.35,29.25 -175.62,69.32 0,0 -108.4,40.47 -120.12,160.2 -6.24,63.53 -73.9,400.79 -86.64,429.37 -12.66,28.53 -162.7,487.01 -167.99,496.49 -5.29,9.56 122.45,62.59 130.91,58.35 8.47,-4.26 145.31,-418.18 159.04,-448.84 0,0 78.77,-248.17 80.89,-285.18 0,0 2.26,105.44 6.45,135.04 4.24,29.6 -70.02,604.31 -67.9,620.15 2.11,15.88 337.53,36.02 471.76,21.2 134.27,-14.78 242.57,-45.65 242.57,-45.65 0,0 -105.62,-453.56 -102.37,-503.83 7.05,-109.61 43.67,-315.92 43.67,-315.92l109.47 206.31 -140.12 360.5 32.06 109.5c0,0 260.39,-393.41 268.82,-429.36 8.5,-35.91 -12.73,-81.71 -26.49,-111.3 -13.73,-29.6 -104,-254.81 -125.13,-286.56 -21.13,-31.72 -56.87,-158.68 -143.2,-194.03 -72.21,-29.57 -193.35,-53.77 -193.35,-53.77l-196.71 8.01z"/>
  <polygon class="fil118" points="5913.19,15075.57 5299.82,14918.3 5409.57,14490.42 6022.94,14647.65 "/>
  <path class="fil119" d="M5488.45 14961.38c0,0 -17.53,28.29 -23.96,36.4 -6.35,8.05 15.77,13.16 25.23,4.94 9.52,-8.15 -1.27,-41.34 -1.27,-41.34z"/>
  <path class="fil120" d="M5616.15 15058.11c0,0 10.38,-10.8 12.63,-17.71 0,0 3.07,-12.95 5.82,-21.98 0.89,-2.89 1.73,-5.4 2.4,-6.91 2.93,-6.46 11.33,-19.76 14.04,-37.26 2.72,-17.46 10.34,-95.95 10.34,-95.95l-47.52 -12 -38.13 -8.04c0,0 -82.48,82.27 -86.89,98.28 -0.43,1.56 -0.81,3.11 -0.99,4.62 -2.44,13.9 1.59,25.26 1.16,32.71 -0.14,2.75 0.29,30.02 6.6,35.13 8.82,7.09 17.81,8.44 25.22,6.04 0,0 17.85,13.16 32.78,12.34 0,0 16.12,12.63 34.36,6.39 0,0 17.78,11.01 28.18,4.34z"/>
  <path class="fil67" d="M5801.64 14561.79c0,0 -108.86,329.7 -128.87,364.34 0,0 -79.83,-16.79 -130.91,-58.35l119.52 -355.77 140.26 49.78z"/>
  <path class="fil121" d="M15622.34 15075.89c0,0 404.11,-1185.09 -367.03,-1552.47 -771.17,-367.42 -1425.89,163.69 -1549.57,451.06 -123.69,287.37 -90.95,809.91 14.53,1174.29 105.48,364.35 90.14,919.06 -139.03,1104.58 -229.16,185.5 -513.29,493.61 -499.25,1120.78 8.75,389.08 1531.09,-995.29 1531.09,-995.29l1009.26 -1302.95z"/>
  <path class="fil101" d="M14538.82 16485.59c0,0 -633.83,140.47 -885.44,287.51 -251.53,147 -810.22,823.31 -810.22,1114.11 0,290.79 2443.23,562.43 2443.23,562.43l463.09 1690.69c0,0 1234.94,-301.35 1381.94,-551.28 147.04,-249.95 -469.02,-2041.18 -574.46,-2403.69 -107.56,-369.82 -550.2,-627.66 -1064.76,-699.77 -514.56,-72.07 -953.38,0 -953.38,0z"/>
  <path class="fil12" d="M15448.25 16479.77c0,0 -14.22,770.36 -625.2,793.22 -610.97,22.82 -483.76,-738.89 -483.76,-738.89 0,0 446.86,-181.05 1108.96,-54.33z"/>
  <path class="fil121" d="M15706.73 14155.1c0,0 216.11,1239.03 -399.35,2134.06 -637.4,926.96 399.35,-2134.06 399.35,-2134.06z"/>
  <path class="fil12" d="M15317.15 15935.08c0,0 -42.5,368.47 28.44,597.67 70.94,229.17 -934.16,235.48 -933.63,47.07 0.67,-214.07 102.84,-392.89 6.6,-759.82 -96.27,-366.92 898.59,115.08 898.59,115.08z"/>
  <path class="fil14" d="M14537.48 15982.07c0,0 317.36,330.62 723.16,34.5 0,0 -33.51,211.31 -325.4,238.58 -291.86,27.31 -397.76,-273.08 -397.76,-273.08z"/>
  <path class="fil12" d="M14934.92 13725.49c0,0 802.01,237.35 687.42,1350.4 -114.58,1113.01 -638.35,1055.69 -687.42,1063.91 -49.14,8.14 -671.12,49.1 -867.52,-1301.26 -196.42,-1350.36 867.52,-1113.05 867.52,-1113.05z"/>
  <path class="fil121" d="M14727.84 14221.81c0,0 435.82,693.25 894.5,854.08 0,0 250.48,-1163.25 -783.98,-1406.99 -1034.41,-243.69 -872.38,1174.93 -795.19,1553.21 0,0 215.48,-556.54 684.67,-1000.3z"/>
  <path class="fil31" d="M14143.32 14117.39c0,0 229.41,-444.25 616.76,-464.11 387.39,-19.83 617.75,316.19 617.75,316.19 0,0 -151.23,-378.35 -617.25,-378.35 -466.02,0 -617.26,526.27 -617.26,526.27z"/>
  <polygon class="fil122" points="15720.34,17611.48 15992.34,20140.11 12412.52,20140.11 12140.53,17611.48 "/>
  <path class="fil122" d="M12322.99 20022.18l3548.41 0 -268.6 -2497.48 -3548.45 0 268.64 2497.48zm3583.2 31.16l-3611.21 0 -275.34 -2559.87 3611.2 0 275.35 2559.87z"/>
  <path class="fil123" d="M14288.53 18834.91c32.13,157.31 -41.24,305.19 -163.91,330.27 -122.66,25.05 -248.14,-82.12 -280.28,-239.43 -32.17,-157.34 41.21,-305.19 163.87,-330.27 122.69,-25.05 248.14,82.13 280.32,239.43z"/>
  <polygon class="fil122" points="15653.92,20140.11 16321.93,20140.11 16321.93,19885.95 15653.92,19885.95 "/>
  <path class="fil2" d="M13576.87 11477.52c-286.46,0 -519.5,233.04 -519.5,519.5 0,286.49 233.04,519.54 519.5,519.54 286.49,0 519.53,-233.05 519.53,-519.54 0,-286.46 -233.04,-519.5 -519.53,-519.5zm0 1070.26c-303.67,0 -550.72,-247.05 -550.72,-550.76 0,-303.67 247.05,-550.72 550.72,-550.72 303.7,0 550.75,247.05 550.75,550.72 0,303.71 -247.05,550.76 -550.75,550.76z"/>
  <path class="fil124" d="M1109.12 15410.46l-45 -13.01c47.48,-164.43 90.2,-264.62 91.99,-268.79l43.02 18.42c-0.44,1.02 -43.43,101.95 -90.01,263.38zm-107.31 546.81l-46.59 -4.76c9.38,-91.66 23.56,-185.88 42.14,-279.97l45.91 9.07c-18.28,92.67 -32.23,185.42 -41.46,275.66zm-41.56 561.37c-12.12,-90.8 -18.56,-186.09 -19.09,-283.1l46.83 -0.28c0.51,95.07 6.82,188.35 18.67,277.17l-46.41 6.21zm160.58 543.56c-40.96,-83.5 -75.41,-172.82 -102.39,-265.36l44.97 -13.08c26.21,89.99 59.67,176.74 99.45,257.84l-42.03 20.6zm338.42 454.52c-70.14,-65.16 -134.17,-136.31 -190.21,-211.52l37.55 -27.98c54.36,72.92 116.44,141.96 184.52,205.21l-31.86 34.29zm5710.22 16.34l-5.93 -46.43c98.22,-12.56 190.47,-19.61 282.08,-21.73l1.03 46.81c-89.93,2.05 -180.62,9 -277.18,21.35zm828.78 34.6c-90.49,-20.92 -182.67,-36.23 -273.97,-45.4l4.7 -46.6c93.23,9.42 187.39,25.01 279.82,46.35l-10.55 45.65zm-1376.08 75.46l-11.61 -45.36c100.79,-25.79 190.57,-46.71 274.47,-64.03l9.48 45.82c-83.18,17.18 -172.26,38 -272.34,63.57zm1899.81 110.07c-86.32,-40.85 -172.79,-76.84 -257.1,-106.96l15.8 -44.1c85.69,30.66 173.64,67.2 261.34,108.73l-20.04 42.33zm-2440.69 39.12l-12.7 -45.05c39.23,-11 78,-22.01 116.38,-32.84 52.04,-14.71 103.3,-29.21 153.99,-43.39l12.59 45.12c-50.62,14.14 -101.88,28.64 -153.81,43.32 -38.41,10.86 -77.22,21.8 -116.45,32.84zm-4151.28 38.84c-87.71,-41.87 -170.87,-88.65 -247.15,-139.17l25.84 -39.05c74.48,49.28 155.72,95.04 241.5,136l-20.19 42.22zm3607.44 104.92l-10.94 -45.54c85.94,-20.61 174.77,-43.15 271.61,-68.94l12.06 45.26c-97.22,25.86 -186.44,48.51 -272.73,69.22zm-3073.63 80.68c-94.35,-22.86 -185.68,-49.39 -271.5,-78.92l15.23 -44.24c84.41,28.97 174.37,55.11 267.3,77.62l-11.03 45.54zm2521.99 32.49l-7.76 -46.21c90.24,-15.1 182.81,-32.42 275.17,-51.47l9.45 45.89c-92.96,19.12 -186.09,36.52 -276.86,51.79zm-1965.36 59.48c-96.03,-9.49 -190.15,-21.7 -279.75,-36.3l7.51 -46.22c88.65,14.43 181.82,26.53 276.86,35.95l-4.62 46.57zm1406.6 11.64l-4.06 -46.6c92.39,-8.04 185.98,-18.06 278.23,-29.85l5.93 46.46c-92.85,11.82 -187.11,21.95 -280.1,29.99zm-844.31 23.71c-92.5,-2.61 -187.22,-6.92 -281.41,-12.91l2.93 -46.71c93.66,5.92 187.82,10.23 279.82,12.84l-1.34 46.78zm281.73 2.85l-0.39 -46.81c93.38,-0.78 187.5,-3.35 279.72,-7.69l2.19 46.78c-92.78,4.34 -187.54,6.95 -281.52,7.72z"/>
  <path class="fil124" d="M7304.72 7668.05l-5 -46.57c94.79,-10.16 189.9,-15.41 282.71,-15.73l0.11 46.81c-91.16,0.28 -184.65,5.51 -277.82,15.49zm829.63 43.43c-90.84,-19.9 -183.12,-34.89 -274.28,-44.63l4.94 -46.57c92.88,9.92 186.86,25.19 279.36,45.44l-10.02 45.76zm-1375.73 65.82l-12.94 -45.01c92.28,-26.6 184.64,-49.32 274.46,-67.45l9.28 45.89c-88.59,17.89 -179.67,40.29 -270.8,66.57zm1905.04 105.52c-89.71,-37.92 -175.05,-69.99 -260.91,-98.07l14.57 -44.49c87.1,28.47 173.63,61 264.61,99.45l-18.27 43.11zm-2429.69 85.23l-18.66 -42.97c88.2,-38.31 176.32,-73.59 261.94,-104.91l16.09 43.95c-84.78,31.01 -172.02,65.94 -259.37,103.93zm2930.95 162.53c-91.68,-50.28 -172.75,-92.93 -247.75,-130.39l20.88 -41.91c75.6,37.75 157.16,80.68 249.38,131.23l-22.51 41.07zm-3432.14 85.65l-22.68 -40.99c83.92,-46.32 167.89,-90.42 249.59,-130.99l20.81 41.91c-81.07,40.29 -164.43,84.03 -247.72,130.07zm3922.4 188.07c-79.38,-43.15 -158.15,-87.49 -245.54,-136.81l23.04 -40.78c87.17,49.21 165.81,93.48 244.86,136.45l-22.36 41.14zm2991.24 94.51l-2.16 -46.78c93.17,-4.38 187.93,-5.37 282.47,-2.86l-1.2 46.81c-93.45,-2.47 -187.04,-1.51 -279.11,2.83zm-7393.45 6.13l-25.47 -39.3c80.19,-52 160.51,-102.27 238.69,-149.4l24.2 40.08c-77.75,46.88 -157.66,96.87 -237.42,148.62zm8228.12 44.56c-92.29,-15.21 -185.42,-27.45 -276.93,-36.3l4.51 -46.6c92.54,8.96 186.76,21.34 280,36.72l-7.58 46.18zm-1388.15 17.25l-9.21 -45.9c91.83,-18.45 185.71,-33.62 278.95,-45.05l5.71 46.46c-92.11,11.33 -184.78,26.25 -275.45,44.49zm-1928.81 80.75c-82.44,-32.17 -166.97,-69.36 -258.48,-113.7l20.43 -42.12c90.38,43.78 173.81,80.47 255.09,112.18l-17.04 43.64zm3861.4 27.45c-89.89,-26.5 -180.83,-50.41 -270.37,-71.12l10.55 -45.62c90.42,20.92 182.31,45.09 273.05,71.83l-13.23 44.91zm-2471.77 40.39l-13.2 -44.94c30.02,-8.82 60.68,-18.49 91.09,-28.68 58.53,-19.65 118.18,-38.07 177.38,-54.72l12.7 45.08c-58.46,16.44 -117.41,34.61 -175.19,54.01 -30.94,10.41 -62.16,20.25 -92.78,29.25zm-842.44 75.6c-91.51,-11.43 -185.17,-29.88 -278.41,-54.75l12.07 -45.23c91.19,24.31 182.77,42.34 272.13,53.52l-5.79 46.46zm283.32 14.57l-1.02 -46.81c90.77,-2.01 183.69,-10.73 276.19,-25.93l7.58 46.21c-94.65,15.56 -189.76,24.45 -282.75,26.53zm3557.66 57.33c-86.5,-36.2 -174.31,-70.24 -260.88,-101.18l15.77 -44.1c87.35,31.22 175.89,65.58 263.17,102.06l-18.06 43.22zm504.86 241.51c-82.27,-44.38 -166.23,-87.1 -249.49,-126.97l20.22 -42.26c83.96,40.22 168.59,83.29 251.49,128.02l-22.22 41.21zm479.85 288.71c-77.02,-51.4 -156.6,-101.85 -236.58,-149.96l24.13 -40.12c80.65,48.48 160.83,99.35 238.45,151.13l-26 38.95zm448.13 335.53c-0.78,-0.71 -78.99,-70.13 -219.04,-174.24l27.94 -37.57c141.89,105.45 221.44,176.14 222.25,176.85l-31.15 34.96z"/>
  <polygon class="fil125" points="10151.29,18266.94 8974.46,17924.78 9327.24,17818.38 "/>
  <polygon class="fil126" points="10151.29,18266.94 9711.41,17825.12 9440.65,17880.12 "/>
  <polygon class="fil127" points="9245.07,18003.41 9254.56,18139.59 10151.29,18266.94 "/>
  <polygon class="fil125" points="4228.11,9283.35 5265.46,8703.2 4908.87,8679.67 "/>
  <polygon class="fil126" points="4228.11,9283.35 4547.31,8769.91 4815.17,8762.79 "/>
  <polygon class="fil127" points="5026.87,8836.63 5047.65,8967.33 4228.11,9283.35 "/>
 </g>
</svg>
