<?xml version="1.0" encoding="UTF-8"?>
<!DOCTYPE svg PUBLIC "-//W3C//DTD SVG 1.1//EN" "http://www.w3.org/Graphics/SVG/1.1/DTD/svg11.dtd">
<!-- Creator: CorelDRAW 2021 (64-Bit) -->
<svg xmlns="http://www.w3.org/2000/svg" xml:space="preserve" width="215.9mm" height="279.4mm" version="1.1" style="shape-rendering:geometricPrecision; text-rendering:geometricPrecision; image-rendering:optimizeQuality; fill-rule:evenodd; clip-rule:evenodd"
viewBox="0 0 21590 27940"
 xmlns:xlink="http://www.w3.org/1999/xlink"
 xmlns:xodm="http://www.corel.com/coreldraw/odm/2003">
 <defs>
  <style type="text/css">
   <![CDATA[
    .str0 {stroke:#2DA8BC;stroke-width:35.28;stroke-miterlimit:22.9256}
    .fil6 {fill:#2DA8BC;fill-rule:nonzero}
    .fil9 {fill:#382F3B;fill-rule:nonzero}
    .fil5 {fill:#91D4E4;fill-rule:nonzero}
    .fil4 {fill:#B8E4ED;fill-rule:nonzero}
    .fil3 {fill:#D4EFF4;fill-rule:nonzero}
    .fil11 {fill:#E89C82;fill-rule:nonzero}
    .fil13 {fill:#F4F6F9;fill-rule:nonzero}
    .fil10 {fill:#F6AF93;fill-rule:nonzero}
    .fil2 {fill:white;fill-rule:nonzero}
    .fil7 {fill:#2DA8BC;fill-rule:nonzero;fill-opacity:0.458824}
    .fil0 {fill:#D4EFF4;fill-rule:nonzero;fill-opacity:0.521569}
    .fil12 {fill:#ED825D;fill-rule:nonzero;fill-opacity:0.541176}
    .fil8 {fill:white;fill-rule:nonzero;fill-opacity:0.611765}
    .fil1 {fill:white;fill-rule:nonzero;fill-opacity:0.788235}
   ]]>
  </style>
 </defs>
 <g id="Layer_x0020_1">
  <metadata id="CorelCorpID_0Corel-Layer"/>
  <path class="fil0" d="M18613.15 13970.01c0,4317.83 -3500.31,7818.15 -7818.15,7818.15 -4317.84,0 -7818.15,-3500.32 -7818.15,-7818.15 0,-4317.85 3500.31,-7818.16 7818.15,-7818.16 4317.84,0 7818.15,3500.31 7818.15,7818.16z"/>
  <g id="_2715008461632">
   <g>
    <g>
     <g>
      <path class="fil1" d="M11651.34 8206.02c93.14,93.21 93.14,244.33 0,337.54 -93.14,93.22 -244.15,93.22 -337.29,0 -93.13,-93.21 -93.13,-244.33 0,-337.54 93.14,-93.22 244.15,-93.22 337.29,0z"/>
     </g>
     <g>
      <path class="fil1" d="M11651.34 8967.51c93.14,93.21 93.14,244.34 0,337.55 -93.14,93.21 -244.15,93.21 -337.29,0 -93.13,-93.21 -93.13,-244.34 0,-337.55 93.14,-93.22 244.15,-93.22 337.29,0z"/>
     </g>
     <g>
      <path class="fil1" d="M11651.34 9729c93.14,93.21 93.14,244.34 0,337.55 -93.14,93.21 -244.15,93.21 -337.29,0 -93.13,-93.21 -93.13,-244.34 0,-337.55 93.14,-93.21 244.15,-93.21 337.29,0z"/>
     </g>
     <g>
      <path class="fil1" d="M11651.34 10490.5c93.14,93.21 93.14,244.33 0,337.54 -93.14,93.22 -244.15,93.22 -337.29,0 -93.13,-93.21 -93.13,-244.33 0,-337.54 93.14,-93.22 244.15,-93.22 337.29,0z"/>
     </g>
     <g>
      <path class="fil1" d="M11651.34 11251.99c93.14,93.21 93.14,244.34 0,337.55 -93.14,93.21 -244.15,93.21 -337.29,0 -93.13,-93.21 -93.13,-244.34 0,-337.55 93.14,-93.21 244.15,-93.21 337.29,0z"/>
     </g>
    </g>
    <g>
     <g>
      <path class="fil1" d="M12404.71 8206.02c93.14,93.21 93.14,244.33 0,337.54 -93.14,93.22 -244.15,93.22 -337.28,0 -93.14,-93.21 -93.14,-244.33 0,-337.54 93.13,-93.22 244.14,-93.22 337.28,0z"/>
     </g>
     <g>
      <path class="fil1" d="M12404.71 8967.51c93.14,93.21 93.14,244.34 0,337.55 -93.14,93.21 -244.15,93.21 -337.28,0 -93.14,-93.21 -93.14,-244.34 0,-337.55 93.13,-93.22 244.14,-93.22 337.28,0z"/>
     </g>
     <g>
      <path class="fil1" d="M12404.71 9729c93.14,93.21 93.14,244.34 0,337.55 -93.14,93.21 -244.15,93.21 -337.28,0 -93.14,-93.21 -93.14,-244.34 0,-337.55 93.13,-93.21 244.14,-93.21 337.28,0z"/>
     </g>
     <g>
      <path class="fil1" d="M12404.71 10490.5c93.14,93.21 93.14,244.33 0,337.54 -93.14,93.22 -244.15,93.22 -337.28,0 -93.14,-93.21 -93.14,-244.33 0,-337.54 93.13,-93.22 244.14,-93.22 337.28,0z"/>
     </g>
     <g>
      <path class="fil1" d="M12404.71 11251.99c93.14,93.21 93.14,244.34 0,337.55 -93.14,93.21 -244.15,93.21 -337.28,0 -93.14,-93.21 -93.14,-244.34 0,-337.55 93.13,-93.21 244.14,-93.21 337.28,0z"/>
     </g>
    </g>
    <g>
     <g>
      <path class="fil1" d="M13171.75 8206.02c93.14,93.21 93.14,244.33 0,337.54 -93.13,93.22 -244.14,93.22 -337.28,0 -93.14,-93.21 -93.14,-244.33 0,-337.54 93.14,-93.22 244.15,-93.22 337.28,0z"/>
     </g>
     <g>
      <path class="fil1" d="M13171.75 8967.51c93.14,93.21 93.14,244.34 0,337.55 -93.13,93.21 -244.14,93.21 -337.28,0 -93.14,-93.21 -93.14,-244.34 0,-337.55 93.14,-93.22 244.15,-93.22 337.28,0z"/>
     </g>
     <g>
      <path class="fil1" d="M13171.75 9729c93.14,93.21 93.14,244.34 0,337.55 -93.13,93.21 -244.14,93.21 -337.28,0 -93.14,-93.21 -93.14,-244.34 0,-337.55 93.14,-93.21 244.15,-93.21 337.28,0z"/>
     </g>
     <g>
      <path class="fil1" d="M13171.75 10490.5c93.14,93.21 93.14,244.33 0,337.54 -93.13,93.22 -244.14,93.22 -337.28,0 -93.14,-93.21 -93.14,-244.33 0,-337.54 93.14,-93.22 244.15,-93.22 337.28,0z"/>
     </g>
     <g>
      <path class="fil1" d="M13171.75 11251.99c93.14,93.21 93.14,244.34 0,337.55 -93.13,93.21 -244.14,93.21 -337.28,0 -93.14,-93.21 -93.14,-244.34 0,-337.55 93.14,-93.21 244.15,-93.21 337.28,0z"/>
     </g>
    </g>
    <g>
     <g>
      <path class="fil1" d="M13925.13 8206.02c93.14,93.21 93.14,244.33 0,337.54 -93.14,93.22 -244.14,93.22 -337.29,0 -93.14,-93.21 -93.14,-244.33 0,-337.54 93.15,-93.22 244.15,-93.22 337.29,0z"/>
     </g>
     <g>
      <path class="fil1" d="M13925.13 8967.51c93.14,93.21 93.14,244.34 0,337.55 -93.14,93.21 -244.14,93.21 -337.29,0 -93.14,-93.21 -93.14,-244.34 0,-337.55 93.15,-93.22 244.15,-93.22 337.29,0z"/>
     </g>
     <g>
      <path class="fil1" d="M13925.13 9729c93.14,93.21 93.14,244.34 0,337.55 -93.14,93.21 -244.14,93.21 -337.29,0 -93.14,-93.21 -93.14,-244.34 0,-337.55 93.15,-93.21 244.15,-93.21 337.29,0z"/>
     </g>
     <g>
      <path class="fil1" d="M13925.13 10490.5c93.14,93.21 93.14,244.33 0,337.54 -93.14,93.22 -244.14,93.22 -337.29,0 -93.14,-93.21 -93.14,-244.33 0,-337.54 93.15,-93.22 244.15,-93.22 337.29,0z"/>
     </g>
     <g>
      <path class="fil1" d="M13925.13 11251.99c93.14,93.21 93.14,244.34 0,337.55 -93.14,93.21 -244.14,93.21 -337.29,0 -93.14,-93.21 -93.14,-244.34 0,-337.55 93.15,-93.21 244.15,-93.21 337.29,0z"/>
     </g>
    </g>
    <g>
     <g>
      <path class="fil1" d="M14654.28 8206.02c93.14,93.21 93.14,244.33 0,337.54 -93.14,93.22 -244.14,93.22 -337.28,0 -93.14,-93.21 -93.14,-244.33 0,-337.54 93.14,-93.22 244.14,-93.22 337.28,0z"/>
     </g>
     <g>
      <path class="fil1" d="M14654.28 8967.51c93.14,93.21 93.14,244.34 0,337.55 -93.14,93.21 -244.14,93.21 -337.28,0 -93.14,-93.21 -93.14,-244.34 0,-337.55 93.14,-93.22 244.14,-93.22 337.28,0z"/>
     </g>
     <g>
      <path class="fil1" d="M14654.28 9729c93.14,93.21 93.14,244.34 0,337.55 -93.14,93.21 -244.14,93.21 -337.28,0 -93.14,-93.21 -93.14,-244.34 0,-337.55 93.14,-93.21 244.14,-93.21 337.28,0z"/>
     </g>
     <g>
      <path class="fil1" d="M14654.28 10490.5c93.14,93.21 93.14,244.33 0,337.54 -93.14,93.22 -244.14,93.22 -337.28,0 -93.14,-93.21 -93.14,-244.33 0,-337.54 93.14,-93.22 244.14,-93.22 337.28,0z"/>
     </g>
     <g>
      <path class="fil1" d="M14654.28 11251.99c93.14,93.21 93.14,244.34 0,337.55 -93.14,93.21 -244.14,93.21 -337.28,0 -93.14,-93.21 -93.14,-244.34 0,-337.55 93.14,-93.21 244.14,-93.21 337.28,0z"/>
     </g>
    </g>
   </g>
   <g>
    <path class="fil2" d="M16161.5 16082.37l-834.69 1310.24c15.21,-89.37 36.53,-178.75 64.56,-267.64 138.98,-440.81 416.84,-799.3 770.13,-1042.6z"/>
    <path class="fil2" d="M17029.78 15746.89l-1639.74 2573.96c-30.05,-95.73 -52.95,-193.96 -68.34,-293.89l1412.51 -2217.26c96.39,-28.29 195.18,-49.31 295.57,-62.81z"/>
    <path class="fil2" d="M17672.35 15765.72l-1993.9 3129.89c-46.55,-64.36 -89.18,-131.39 -127.71,-200.68l1886.02 -2960.56c78.35,5.67 156.99,16.09 235.59,31.35z"/>
    <path class="fil2" d="M18208.73 15951.24l-2135.58 3352.31c-57.75,-44.69 -112.64,-92.38 -164.67,-142.68l2101.3 -3298.5c68.54,26.3 134.93,55.96 198.95,88.87z"/>
    <path class="fil2" d="M18660.33 16269.85l-2107.16 3307.71c-68.05,-27.14 -133.82,-57.78 -197.28,-91.5l2138 -3356.11c58.24,43.81 113.84,90.46 166.44,139.9z"/>
    <path class="fil2" d="M19022.84 16728.29l-1901.42 2984.75c-77.73,-6.84 -155.69,-18.26 -233.58,-34.52l2005.18 -3147.61c47.16,63.26 90.51,129.17 129.82,197.38z"/>
    <path class="fil2" d="M19260.45 17382.8l-1445.14 2268.51c-95.15,25.83 -192.52,44.63 -291.32,56.13l1663.86 -2611.83c31.15,93.48 55.51,189.45 72.6,287.19z"/>
    <path class="fil2" d="M18371.59 19404.43l900.51 -1413.57c-15.12,111.46 -39.78,223.14 -74.75,334.06 -146.2,463.69 -446.07,836.26 -825.76,1079.51z"/>
   </g>
   <g>
    <g>
     <g>
      <path class="fil2" d="M8669.17 7450.43l344.21 0c30.9,0 55.93,25.05 55.93,55.94l0 344.22c0,30.89 25.05,55.93 55.95,55.93l8.6 0c30.89,0 55.94,-25.04 55.94,-55.93l0 -344.22c0,-30.89 25.04,-55.94 55.93,-55.94l344.21 0c30.9,0 55.94,-25.03 55.94,-55.94l0 -8.59c0,-30.9 -25.04,-55.93 -55.94,-55.93l-344.21 0c-30.89,0 -55.93,-25.05 -55.93,-55.95l0 -344.22c0,-30.89 -25.05,-55.92 -55.94,-55.92l-8.6 0c-30.9,0 -55.95,25.03 -55.95,55.92l0 344.22c0,30.9 -25.03,55.95 -55.93,55.95l-344.21 0c-30.89,0 -55.93,25.03 -55.93,55.93l0 8.59c0,30.91 25.04,55.94 55.93,55.94z"/>
     </g>
     <g>
      <path class="fil2" d="M9638.98 8067.97l209.88 0c18.84,0 34.1,15.28 34.1,34.11l0 209.88c0,18.84 15.27,34.11 34.11,34.11l5.25 0c18.83,0 34.11,-15.27 34.11,-34.11l0 -209.88c0,-18.83 15.26,-34.11 34.1,-34.11l209.88 0c18.84,0 34.1,-15.26 34.1,-34.1l0 -5.24c0,-18.84 -15.26,-34.11 -34.1,-34.11l-209.88 0c-18.84,0 -34.1,-15.27 -34.1,-34.11l0 -209.88c0,-18.83 -15.28,-34.1 -34.11,-34.1l-5.25 0c-18.84,0 -34.11,15.27 -34.11,34.1l0 209.88c0,18.84 -15.26,34.11 -34.1,34.11l-209.88 0c-18.84,0 -34.1,15.27 -34.1,34.11l0 5.24c0,18.84 15.26,34.1 34.1,34.1z"/>
     </g>
    </g>
   </g>
   <g>
    <g>
     <path class="fil3" d="M17536.35 12197.91c206.56,206.55 206.56,541.44 0,747.99 -206.56,206.56 -541.45,206.56 -748,0 -206.56,-206.55 -206.56,-541.44 0,-747.99 206.55,-206.56 541.44,-206.56 748,0z"/>
    </g>
    <g>
     <path class="fil2" d="M17613.33 12817.69c196.85,194.91 311.86,468.93 314.19,747.08 1.34,138.88 -23.38,278.56 -74.99,408.49 -51.27,130 -128.83,249.96 -226.5,351.09 -195.08,202.83 -474.12,325.04 -759.19,327.71 -142.19,1.17 -285.04,-25.38 -417.21,-79.42 -132.11,-54.12 -253.19,-134.92 -354.63,-235.48 -100.59,-101.43 -181.21,-222.65 -235.3,-354.75 -54.2,-132.12 -80.53,-275.04 -79.49,-417.22 2.36,-285.1 124.31,-564.33 326.9,-759.72 101.05,-97.77 220.87,-175.55 350.85,-226.97 129.89,-51.76 269.57,-76.61 408.47,-75.29 278.18,2.21 552.16,117.49 746.9,314.48zm0 0c-98.25,-97.35 -215.37,-175.47 -343.19,-227.82 -127.83,-52.35 -266.12,-77.92 -403.71,-76.76 -275.95,2.71 -545.58,121.09 -734.24,317.41 -94.45,97.94 -169.32,213.94 -218.81,339.65 -49.84,125.64 -73.59,260.72 -72.31,395 2.42,269.03 113.51,533.6 303.79,722.17 188.36,190.43 452.91,301.9 721.97,304.16 134.31,1.38 269.39,-22.63 394.98,-72.61 125.68,-49.66 241.52,-124.78 339.38,-219.35 196.07,-188.98 314.05,-458.82 316.53,-734.77 1.06,-137.6 -24.45,-275.89 -76.79,-403.74 -52.29,-127.84 -130.32,-245.01 -227.6,-343.34z"/>
    </g>
   </g>
   <g>
    <path class="fil2" d="M4330.5 6610.85l-506.09 1468.78c-6.05,-90.46 -6.16,-182.36 0.36,-275.34 32.34,-461.06 218.93,-874.45 505.73,-1193.44z"/>
    <path class="fil2" d="M5096.6 6082.12l-994.21 2885.38c-51.55,-86.08 -96.73,-176.25 -135,-269.84l856.43 -2485.53c87.13,-49.98 178.3,-93.47 272.78,-130.01z"/>
    <path class="fil2" d="M5725.85 5950.56l-1208.95 3508.6c-60.28,-51.73 -117.36,-106.98 -170.99,-165.37l1143.54 -3318.78c77.51,-12.76 156.41,-20.96 236.4,-24.45z"/>
    <path class="fil2" d="M6290.71 6005.86l-1294.86 3757.93c-66.58,-29.99 -131.09,-63.57 -193.41,-100.34l1274.07 -3697.6c72.8,9.58 144.27,22.95 214.2,40.01z"/>
    <path class="fil2" d="M6804.15 6210.37l-1277.62 3707.92c-72.5,-10.52 -143.61,-24.96 -213.18,-42.95l1296.33 -3762.21c66.85,29.01 131.79,61.42 194.47,97.24z"/>
    <path class="fil2" d="M7263.6 6571.62l-1152.89 3345.91c-77.18,11.48 -155.66,18.56 -235.19,20.9l1215.8 -3528.48c60.62,50.51 118.15,104.5 172.28,161.67z"/>
    <path class="fil2" d="M7647.3 7152.67l-876.23 2542.99c-86.5,47.31 -176.79,88.29 -270.19,122.52l1008.84 -2927.86c52.1,83.64 98.17,171.3 137.58,262.35z"/>
    <path class="fil2" d="M7254.42 9325.86l546.01 -1584.63c11.29,111.91 13.37,226.27 5.23,342.29 -34.03,485 -238.74,917.24 -551.24,1242.34z"/>
   </g>
   <g>
    <path class="fil4" d="M6039.19 9653.8c0,706.36 -572.62,1279 -1278.99,1279 -706.37,0 -1279.01,-572.64 -1279.01,-1279 0,-706.38 572.64,-1279.01 1279.01,-1279.01 706.37,0 1278.99,572.63 1278.99,1279.01z"/>
    <g>
     <path class="fil2" d="M5933.43 9653.8c0,647.95 -525.28,1173.23 -1173.23,1173.23 -647.95,0 -1173.24,-525.28 -1173.24,-1173.23 0,-647.97 525.29,-1173.23 1173.24,-1173.23 647.95,0 1173.23,525.26 1173.23,1173.23z"/>
    </g>
    <g>
     <path class="fil5" d="M4881.73 8901.24c8.28,140.22 11.36,280.45 14.88,420.68 2.02,140.22 3.43,280.45 2.29,420.68l-0.14 17.24 -17.04 -0.06c-105.17,-0.42 -210.34,-1.88 -315.51,-5 -52.58,-1.61 -105.17,-2.27 -157.75,-4.67 -52.59,-2.42 -105.17,-4.11 -157.76,-7.51 52.59,-3.41 105.17,-5.09 157.76,-7.51 52.58,-2.41 105.17,-3.06 157.75,-4.67 105.17,-3.12 210.34,-4.58 315.51,-5l-17.17 17.18c-1.14,-140.23 0.27,-280.46 2.29,-420.68 3.52,-140.23 6.61,-280.46 14.89,-420.68z"/>
    </g>
   </g>
   <g>
    <path class="fil5" d="M17609.82 18025.2c196.53,324.76 92.71,747.56 -231.89,944.34 -324.61,196.79 -747.08,93.05 -943.61,-231.71 -196.54,-324.76 -92.71,-747.56 231.89,-944.34 324.61,-196.79 747.08,-93.04 943.61,231.71z"/>
   </g>
   <g>
    <path class="fil5" d="M17890.36 17353.75c51.49,85.09 24.29,195.85 -60.76,247.41 -85.04,51.55 -195.73,24.38 -247.22,-60.71 -51.49,-85.09 -24.28,-195.85 60.76,-247.41 85.04,-51.56 195.72,-24.38 247.22,60.71z"/>
   </g>
   <path class="fil5" d="M3725.51 10904.55c207.12,134.74 265.79,411.87 131.04,618.99 -134.74,207.12 -411.88,265.79 -619,131.05 -207.11,-134.75 -265.79,-411.88 -131.04,-619 134.75,-207.12 411.88,-265.79 619,-131.04z"/>
   <g>
    <path class="fil3" d="M17416.85 11444.5c75.57,75.56 75.57,198.07 0,273.63 -75.55,75.56 -198.06,75.56 -273.62,0 -75.56,-75.56 -75.56,-198.07 0,-273.63 75.56,-75.56 198.07,-75.56 273.62,0z"/>
   </g>
   <path class="fil5" d="M15714.44 12962.25l-104.03 170.23c-1.98,3.25 -4.69,5.99 -7.91,8.03l-186.24 117.62c-15.6,9.86 -15.34,32.7 0.49,42.2l197.09 118.25c3.54,2.13 6.5,5.12 8.6,8.69l94.96 161.42c9.34,15.88 32.15,16.37 42.16,0.9l106.02 -163.86c1.67,-2.58 3.81,-4.83 6.3,-6.62l177.79 -128.41c14.75,-10.65 13.38,-33.03 -2.56,-41.8l-195.94 -107.76c-4.4,-2.43 -7.97,-6.13 -10.22,-10.64l-83.21 -166.41c-8.7,-17.41 -33.15,-18.44 -43.3,-1.84z"/>
   <g>
    <path class="fil2" d="M14802.65 13368.22l-149.28 244.29c-2.85,4.66 -6.73,8.6 -11.35,11.52l-267.27 168.8c-22.39,14.15 -22.02,46.93 0.69,60.56l282.84 169.7c5.1,3.05 9.35,7.33 12.36,12.46l136.26 231.65c13.41,22.8 46.14,23.5 60.51,1.29l152.15 -235.15c2.4,-3.7 5.46,-6.92 9.03,-9.5l255.15 -184.27c21.17,-15.29 19.2,-47.41 -3.68,-59.99l-281.18 -154.64c-6.32,-3.48 -11.44,-8.8 -14.67,-15.26l-119.41 -238.82c-12.48,-24.98 -47.58,-26.47 -62.15,-2.64z"/>
   </g>
   <path class="fil5" d="M4636.2 11310.08c88.96,57.87 114.16,176.91 56.28,265.87 -57.87,88.96 -176.91,114.16 -265.87,56.29 -88.96,-57.88 -114.16,-176.91 -56.29,-265.88 57.88,-88.96 176.91,-114.16 265.88,-56.28z"/>
   <path class="fil5" d="M5773.68 7629.71l-104.03 170.22c-1.98,3.25 -4.69,6 -7.91,8.03l-186.24 117.63c-15.6,9.85 -15.34,32.7 0.49,42.2l197.09 118.25c3.54,2.13 6.5,5.12 8.6,8.69l94.96 161.42c9.34,15.88 32.15,16.37 42.16,0.89l106.02 -163.85c1.67,-2.58 3.81,-4.83 6.3,-6.63l177.79 -128.41c14.75,-10.65 13.38,-33.03 -2.56,-41.79l-195.94 -107.77c-4.4,-2.42 -7.97,-6.13 -10.22,-10.63l-83.21 -166.41c-8.7,-17.41 -33.15,-18.45 -43.3,-1.84z"/>
  </g>
  <g id="_2715008462208">
   <g>
    <g>
     <g>
      <path class="fil5" d="M6876.82 18691.09c23.68,-93.88 47.22,-187.33 67.6,-281.41 19.99,-94.15 38.93,-188.4 54.12,-283.3 16.01,-94.78 28.31,-190.11 39.4,-285.7 5.47,-47.81 9.93,-95.76 13.78,-143.81 4.75,-48.02 7.35,-96.18 11.42,-144.47 3.93,48.29 4.76,96.69 5.86,145.17 -0.36,48.44 -1.8,96.88 -4.02,145.34 -4.78,96.9 -16.27,193.39 -31.65,289.2 -16.21,95.66 -36.26,190.73 -62.69,284.06 -26.03,93.4 -56.32,185.6 -93.82,274.92z"/>
     </g>
     <g>
      <g>
       <path class="fil4" d="M7947.9 19378.15c-857.75,-3253.5 -2492.48,-4757.4 -4333.4,-6143.86 -57.2,1241.94 195.38,2665.27 738.68,3648.29 543.3,983.01 1629.18,2815.57 2891.81,3565.15l702.91 -1069.58z"/>
      </g>
      <g>
       <path class="fil5" d="M7423.4 20167.5l-181.52 -450.55 -189.19 -447.29 -195.26 -444.59c-66.44,-147.59 -135.37,-294.05 -202.93,-441.1 -275.45,-585.81 -568.86,-1163.19 -885,-1728 -313.65,-566.17 -649.8,-1119.8 -1004.97,-1660.95 -88.6,-135.42 -180.2,-268.85 -270.17,-403.39 -91.55,-133.46 -185.65,-265.15 -278.21,-397.95l-284.88 -393.29 -293.06 -387.36 299.95 382.16 291.98 388.38c94.21,131.75 189.52,262.76 282.54,395.38 91.38,133.74 184.42,266.4 274.47,401.07 360.28,538.69 696.68,1093.26 1013.13,1658.81 313.97,566.96 608.25,1144.88 878.72,1733.76 66.16,147.87 133.69,295.13 198.71,443.48l190.79 446.91 181.34 450.78 173.56 453.74z"/>
      </g>
      <g>
       <path class="fil5" d="M6480.48 17923.7c8.01,-83.29 19.83,-165.88 32.22,-248.36 12,-82.56 26.71,-164.6 41.45,-246.65 15.55,-81.9 31.18,-163.78 49.49,-245.17l27.59 -122.05c10.46,-40.45 19.73,-81.13 31.25,-121.38 -3.65,41.71 -9.55,83.01 -14.25,124.52l-17.91 123.85c-12.02,82.55 -26.73,164.6 -41.51,246.64 -15.6,81.89 -31.21,163.78 -49.55,245.16 -17.94,81.45 -36.46,162.8 -58.78,243.44z"/>
      </g>
      <g>
       <path class="fil5" d="M5811.99 16621.98c15.13,-90.78 30.54,-181.05 43.1,-271.66 12.17,-90.65 23.63,-181.27 31.61,-272.24 8.8,-90.9 14.18,-182.06 18.63,-273.4 2.17,-45.68 3.37,-91.41 4.02,-137.22 1.58,-45.84 1.06,-91.66 2.06,-137.71 6.98,45.52 10.94,91.35 15.22,137.25 2.87,45.94 4.71,91.96 5.83,138.05 1.94,92.19 -2.55,184.43 -10.66,276.28 -8.94,91.77 -21.44,183.25 -40.08,273.53 -18.24,90.32 -40.47,179.81 -69.73,267.12z"/>
      </g>
      <g>
       <path class="fil5" d="M5159.9 15579.47c10.02,-142.17 20.39,-282.73 23.01,-423.84 3.62,-141.1 -0.43,-281.88 -5.56,-424.31 32.85,138.88 43.52,282.44 40.81,425.1 -3.76,142.66 -20.84,285.38 -58.26,423.05z"/>
      </g>
      <g>
       <path class="fil5" d="M4524.24 14614c1.83,-84.35 6.28,-166.14 5.33,-248.41 0.05,-82.29 -5.13,-163.82 -9.5,-248.07 31.8,78.45 43.86,163.6 44.76,247.9 -0.16,84.37 -11.35,169.24 -40.59,248.58z"/>
      </g>
      <g>
       <path class="fil5" d="M4514.97 14630.42c-73.6,5.56 -145.98,0.4 -218.06,-7.27 -71.96,-8.78 -143.62,-20.15 -214.04,-42.3 73.61,-5.64 145.98,-0.48 218.06,7.27 71.94,8.85 143.61,20.22 214.04,42.3z"/>
      </g>
      <g>
       <path class="fil5" d="M5145.4 15600.43c-82.65,15.67 -167.82,18.66 -252.28,11.62 -84.59,-6.58 -168.21,-25.38 -248.55,-53.14 -80.08,-28.5 -157.08,-66.06 -227.38,-113.5l-51.65 -36.94 -49.47 -39.6 -46.25 -43.18c-14.75,-15.06 -29.16,-30.39 -43.3,-45.88 16.78,12.74 33.28,25.64 49.44,38.82l50.75 36.6 51.58 34.97 53.22 32.15c71.94,40.93 146.78,76.35 224.73,103.29 77.67,27.75 158.24,46.83 240.01,59.58 81.89,12.4 165.18,16.38 249.15,15.21z"/>
      </g>
      <g>
       <path class="fil5" d="M5784.35 16633.24c-108.99,32.06 -222.27,50.13 -336.35,56.14 -114.11,6.45 -229.09,-1.34 -341.91,-20.95 -112.67,-20.39 -223.37,-52.7 -328.09,-98.7l-77.49 -36.53 -75.3 -40.59 -72.17 -45.7c-23.3,-16.35 -46.33,-33.03 -69.1,-49.91 24.92,13.72 49.57,27.65 73.95,41.9l75.49 38.47 76.6 35.66 78.24 31.56c105.27,39.31 213.58,69.92 324.05,89.13 110.32,20.04 222.56,28.6 334.97,28.66 112.48,-0.33 225.03,-11.3 337.11,-29.14z"/>
      </g>
      <g>
       <path class="fil5" d="M6466.41 17920.75c-46.56,22.85 -94.76,44.12 -147.72,52.64 -26.36,4.38 -53.53,3.41 -79.38,1.87 -26.03,-1.45 -52.11,-2.63 -78.1,-5.07 -104.12,-8.12 -207.53,-25.82 -309.02,-50.93 -101.34,-25.66 -201.19,-57.85 -297.04,-99.44 -47.78,-21.08 -95.23,-42.83 -141.38,-67.09 -45.88,-24.78 -91.06,-50.74 -134.61,-79.21 47.5,21.35 94.03,44.11 142.16,63.35 47.24,21.06 95.52,39.63 143.96,57.41 96.95,35.37 195.49,65.88 295.41,90.88 99.79,25.76 201.31,44 303.43,59.18 25.51,4.03 51.19,6.81 76.86,9.87 25.76,3.48 50.72,4.71 76.01,3.35 50.66,-2.88 100.19,-20.64 149.42,-36.81z"/>
      </g>
     </g>
    </g>
    <g>
     <path class="fil5" d="M10481.33 21751.43c800.5,-44.55 1627.95,87.97 2399.76,384.32 -605.82,-309.15 -1244.39,-552.03 -1897.51,-721.71 1087.64,-136.72 2209.51,-124.78 3321.73,35.34 -897.52,-241.29 -1812.34,-399.57 -2726.57,-471.73 1166.08,-266.8 2353.51,-470.93 3555.09,-611.16 -1106.74,-124.11 -2109.96,-218.87 -3176.98,-30.29 1210.58,-574.83 2415.28,-849.59 3778.09,-1063.75 -1395.8,-124.36 -2940.43,-17.1 -4453.62,496.3 -329,111.63 -1269.99,621.49 -1269.99,621.49l-446.55 686.13 916.55 675.06z"/>
    </g>
    <g>
     <g>
      <path class="fil5" d="M10562.17 19442.8c-17.8,-85.1 -27.45,-171.77 -32.16,-258.73 -5.11,-86.99 -3.09,-174.33 3.27,-261.27 7.2,-86.88 18.82,-173.47 37.41,-258.6 9.5,-42.52 19.79,-84.81 31.17,-126.77 12.87,-41.6 25.46,-83.18 41.09,-123.75 -3.88,21.4 -8.04,42.68 -12.61,63.82l-11.63 63.85c-7.91,42.48 -15.13,85 -21.32,127.66 -12.12,85.33 -22.63,170.74 -28.96,256.54 -7.15,85.74 -10.05,171.75 -11.41,257.93 -0.95,86.21 1.81,172.52 5.15,259.32z"/>
     </g>
     <g>
      <g>
       <path class="fil4" d="M9224.74 19869.7c1744.46,-2712.53 4066.08,-3879.62 6416.01,-4793.64 -380.16,1088.87 -1043.63,2421.58 -1880.1,3194.55 -836.47,772.98 -2475.39,2202.01 -4036.96,2652.33l-498.95 -1053.24z"/>
      </g>
      <g>
       <path class="fil5" d="M9599.22 20647.93l312.27 -381.69 319.2 -376.02 327.3 -369.05 334.03 -363.03c450.01,-479.82 919.67,-941.14 1404.25,-1386.09 486.5,-442.84 988.13,-869.2 1506.44,-1274.29l391.66 -299.96 397.12 -292.63 403.43 -283.76 408.54 -276.21 -403.58 283.27 -398.21 290.64 -393.83 296.44 -388.33 303.52c-514.27,409.06 -1015.42,834.65 -1499.47,1278.99 -485.97,442.23 -954.65,903.33 -1408.4,1378.65l-337.26 359.41 -330.82 365.43 -325.52 370.24 -318.82 376.14z"/>
      </g>
      <g>
       <path class="fil5" d="M11184.9 18834.83c-3.36,-74.76 -2.86,-149.31 -1.78,-223.82 0.68,-74.54 4.13,-148.93 7.6,-223.32 4.3,-74.35 8.67,-148.69 15.76,-222.9l10.77 -111.29c4.88,-37.03 8.55,-74.13 14.5,-111.1 2.04,37.39 1.8,74.67 2.78,112l-0.95 111.82c-0.71,74.53 -4.14,148.93 -7.65,223.32 -4.35,74.34 -8.71,148.69 -15.83,222.89 -6.72,74.22 -14.03,148.41 -25.2,222.4z"/>
      </g>
      <g>
       <path class="fil5" d="M12237.08 17802.88c-9.3,-82.65 -10.75,-166.03 -7.63,-249.26 2.71,-83.29 12.16,-166.29 25.53,-248.58 14.2,-82.14 32.39,-163.68 57.04,-243.29 12.51,-39.75 25.71,-79.22 39.9,-118.31 15.61,-38.61 30.86,-77.26 48.99,-114.7 -10.63,40.23 -22.57,79.81 -32.52,119.98 -10.77,39.89 -20.94,79.87 -30.16,120.05 -18.23,80.39 -35.24,160.91 -48.48,242.11 -14.06,81.07 -24.28,162.73 -33.36,244.67 -8.68,81.99 -14.06,164.39 -19.31,247.33z"/>
      </g>
      <g>
       <path class="fil5" d="M13206.83 16995.57c-4.7,-129.97 13.26,-260.27 45.17,-386.45 32.87,-125.93 80.02,-248.78 147.11,-360.21 -41.65,123.01 -81.47,244.65 -112.97,368.99 -32.48,124.08 -56.31,249.87 -79.31,377.67z"/>
      </g>
      <g>
       <path class="fil5" d="M14139.5 16253.13c-10.4,-76.98 -0.42,-155.58 20.95,-230.09 22.33,-74.22 56.56,-145.76 107.27,-204.63 -26.36,72.79 -52.7,142.48 -73.45,214.59 -21.7,71.81 -37.33,144.71 -54.77,220.13z"/>
      </g>
      <g>
       <path class="fil5" d="M14145.51 16269.05c81.26,-9.33 161.92,-7.89 242.43,-3.92 80.44,5.08 160.74,12.76 240.43,31.28 -81.27,9.41 -161.92,7.97 -242.43,3.92 -80.44,-5.15 -160.74,-12.83 -240.43,-31.28z"/>
      </g>
      <g>
       <path class="fil5" d="M13217.39 17016.33c91.7,14.31 183.44,23.96 275.27,26.13 91.79,1.76 183.51,-1.8 274.38,-13.22 90.97,-10.61 180.91,-29.01 269.62,-52.6l66.22 -19.16 65.42 -22.04 65.09 -23.63c21.25,-8.99 42.73,-17.61 64.44,-25.99 -19.97,11.78 -40.15,23.32 -60.56,34.5l-62.5 31.16 -64.48 27.02 -65.74 24.1c-88.46,30.21 -180.42,50.02 -273.27,61.64 -92.95,10.8 -186.99,13.49 -280.09,5.2 -93.06,-7.88 -185.34,-24.6 -273.8,-53.11z"/>
      </g>
      <g>
       <path class="fil5" d="M12264.37 17817.29c120.48,34.6 242.3,62.45 365.46,80.66 123.18,17.81 247.29,28.1 371.55,28.21 124.25,0.93 248.46,-8.26 371.76,-25.06l92.27 -14.52 91.7 -18.33 91.34 -20.82c30.08,-8.39 60.34,-16.37 90.77,-24.09 -29.2,11.33 -58.56,22.39 -88.11,33.05l-89.81 28.63 -91.39 23.39 -92.41 19.47c-123.85,23.37 -250.13,33.7 -376.27,33.54 -126.14,-1 -252.32,-12.41 -375.95,-36.84 -123.65,-24.01 -245.14,-58.91 -360.91,-107.29z"/>
      </g>
      <g>
       <path class="fil5" d="M11200.96 18834.55c52.37,23.45 104.85,48.27 160.53,57.42 27.71,4.98 55.72,6.98 84.51,8.17 28.59,1.62 57.18,2.9 85.79,3.5 114.39,3.09 228.74,3.1 342.84,-3.22 114.12,-5.55 227.99,-16.09 341.45,-30.84 56.73,-7.41 113.44,-15.6 169.78,-26.05 56.75,-8.61 112.82,-20.68 169.46,-31.12 -54.59,18.25 -110.07,33.72 -165.87,48.19 -55.94,13.86 -112.48,25.23 -169.17,35.97 -113.49,21.12 -228.61,32.87 -343.91,39.01 -115.34,5.41 -231.07,4.5 -346.06,-5.51 -28.76,-2.24 -57.44,-5.15 -86.09,-8.4 -28.45,-3.03 -57.86,-5.95 -86.26,-13.62 -57.08,-15.17 -108.15,-43.43 -157,-73.5z"/>
      </g>
      <g>
       <path class="fil5" d="M10436.61 19686.93c91.37,7.35 182.31,13.77 273.3,16.14 90.97,1.96 181.83,2.05 272.56,-2.47 90.76,-3.69 181.26,-11.91 271.68,-22.06 45.21,-5.21 90.31,-11.53 135.37,-18.59l67.7 -10.45c22.44,-4.22 45,-8.01 67.69,-11.53 -43.37,14.99 -87.65,26.84 -131.99,38.93 -44.66,10.56 -89.61,19.94 -134.79,28.49 -90.45,16.61 -182.19,25.9 -274.08,30.43 -91.93,3.69 -184.11,2.68 -275.68,-5.78 -91.56,-8.05 -182.63,-21.38 -271.76,-43.11z"/>
      </g>
     </g>
    </g>
    <g>
     <path class="fil5" d="M6924.2 20727.69c-265.78,27.42 -531.56,54.84 -797.33,82.26 -172.69,17.81 -355.12,34.14 -512.8,-38.49 -157.69,-72.62 -272.46,-268.62 -194.75,-423.86 95.29,-190.37 402.09,-205.64 476.12,-405.24 -198.4,-190.83 -501.78,-211.18 -776.99,-205.33 -275.21,5.86 -569.46,22.34 -804.85,-120.37 -235.4,-142.7 -344.98,-519.34 -130.38,-691.74 86.81,-69.74 202.75,-89.07 302.73,-138.08 99.98,-49.02 192.19,-156.51 156.86,-262.11 -23.2,-69.36 -92.8,-110.88 -158.77,-142.45 -272.61,-130.44 -571.53,-194.74 -855.16,-299.09 -283.63,-104.35 -564.59,-260.4 -724.26,-516.99 -159.67,-256.59 -157.02,-632.15 72.08,-829.24 261.28,-224.78 679.84,-123.34 945.62,96.11 265.79,219.45 439.2,530.07 679.71,776.96 82.37,84.56 203.22,166.74 309.79,115.97 137.95,-65.7 105.54,-266.52 69.14,-414.92 -36.39,-148.4 1.33,-368.44 153.96,-361.23 49.98,2.36 94.27,32.61 131.22,66.35 393.6,359.38 169.5,1025.79 367.75,1520.53 43.81,109.32 141.02,224.64 255.79,198.28 227.56,-52.27 99.97,-508.28 325.01,-570.48 99.21,-27.42 197.49,54.74 244.47,146.33 161.65,315.2 -52.67,695.48 -11,1047.26 55.14,465.41 524.19,751.39 946.25,955.15l-470.21 414.42z"/>
    </g>
    <g>
     <g>
      <g>
       <path class="fil5" d="M10037.96 18567.74c73.01,-313.93 147.61,-627.98 245.52,-935.27 96.18,-301.82 215.25,-598.33 380.06,-869.71 81.87,-134.81 174.9,-262.8 280.49,-380.03 114.4,-126.99 242.2,-240.96 372.93,-350.74 129.52,-108.75 262.17,-213.79 389.16,-325.53 123.28,-108.48 239.6,-224.27 346.06,-349.38 212.84,-250.12 388.54,-531.51 521.18,-831.91 15.88,-35.96 31.12,-72.2 45.84,-108.66 8.5,-21.04 -25.61,-30.19 -34.02,-9.38 -123.76,306.5 -291.78,595.87 -498.9,853.61 -102.72,127.83 -215.08,247.56 -335.81,358.52 -124.62,114.53 -256.64,220.58 -387.05,328.36 -131.4,108.6 -261.47,219.32 -380.31,341.76 -110.71,114.06 -209.82,238.83 -297.05,371.67 -171.96,261.84 -297.87,551.5 -398.76,847.27 -104.55,306.49 -182.77,621.17 -256.77,936.19 -8.91,37.94 -17.76,75.89 -26.58,113.86 -5.14,22.08 28.86,31.51 34.01,9.37z"/>
      </g>
     </g>
     <g>
      <path class="fil5" d="M12383.36 14835.92c29.37,-345.41 77.57,-731.24 326.06,-954.97 48.95,-44.09 106.99,-80.78 169.28,-84.35 62.3,-3.57 128.13,34.02 144.93,98.94 10.82,41.85 0.55,87.37 -12.49,129.41 -105.68,340.63 -379.68,585.09 -639.94,808.96l12.16 2.01z"/>
     </g>
     <g>
      <path class="fil5" d="M12083.12 15247.81c148.6,-104.83 316.53,-175.53 489.17,-205.91 92.75,-16.33 192.83,-19.67 272.11,31.26 79.3,50.93 124.62,172.51 73.56,260.11 -48.68,83.54 -152.94,97.84 -242.02,98.06 -215.86,0.52 -430.78,-28.66 -638.09,-86.66l45.27 -96.86z"/>
     </g>
     <g>
      <path class="fil5" d="M11737.89 15636.08c143.88,-291.15 181.49,-488.68 154.98,-812.24 -7.25,-88.39 -23.57,-181.54 -79.62,-243.93 -56.03,-62.38 -163.61,-75.52 -215.92,-5.19 -36.02,48.42 -34.67,116.2 -30.78,177.2 19.06,298.57 68.15,669.27 119.31,962.03l52.03 -77.87z"/>
     </g>
     <g>
      <path class="fil5" d="M11248.36 16058.24c233.15,-167.04 536.18,-206.16 789.67,-101.98 66.87,27.48 133.61,67.72 167.84,136.01 34.23,68.28 22.33,169.97 -41.06,210.56 -41.84,26.8 -93.15,21.34 -140.11,13.78 -266.68,-42.99 -526.52,-126.74 -769.72,-248.12l-6.62 -10.25z"/>
     </g>
     <g>
      <path class="fil5" d="M11069.84 16197.99c106.51,-296.44 129.21,-625.3 64.15,-929.12 -6.51,-30.43 -16.02,-63.71 -41.01,-78.38 -53.7,-31.52 -108.69,47.1 -128.11,112.12 -88.68,296.98 -43.06,705.87 50.44,993.83l54.53 -98.45z"/>
     </g>
     <g>
      <path class="fil5" d="M10784.35 16593.7c168.44,-89.31 378.12,-68.57 522.38,51.66 47.22,39.36 90.2,108.49 59.78,166.78 -22.93,43.96 -75.28,55.83 -120.82,59.17 -172.67,12.69 -392.35,-104.06 -541.4,-193.61l80.06 -84z"/>
     </g>
    </g>
   </g>
   <g>
    <g>
     <g>
      <g>
       <polygon class="fil6" points="12626.4,9214.61 12670.31,9124.1 12685,9133.36 "/>
       <path class="fil6" d="M12779.54 8945.22c39.69,-57.82 84.02,-112.47 130.7,-165.19l47.5 46.35c-49.94,46.29 -96.89,95.84 -142.75,146.73l-35.45 -27.89z"/>
       <path class="fil6" d="M13060.51 8631.01c52.8,-47.05 108.67,-90.79 167.15,-130.79l51.58 77.98c-56.96,36.35 -112.51,75.04 -166.42,116.14l-52.31 -63.33z"/>
       <polygon class="fil6" points="13408.76,8388.88 13601.42,8298.74 13640.28,8395.6 13455.73,8478.88 "/>
       <polygon class="fil6" points="13802.19,8229.05 14008.47,8179.64 14028.42,8279.29 13831.76,8329.26 "/>
       <path class="fil6" d="M14218.21 8150.84l105.35 -7.11c35.09,-2.64 70.31,-1.97 105.4,-2.8l2.87 82.4c-33.95,3.12 -67.96,4.91 -101.68,9.6l-101.32 11.05 -10.62 -93.14z"/>
       <path class="fil6" d="M14639.12 8149.34c69.61,8.59 139.1,16.35 208.13,26.09l-4.89 45.08c-68.96,-0.47 -137.46,-2.93 -205.84,-4.55l2.6 -66.62z"/>
       <polygon class="fil6" points="15052.31,8218.57 15149.09,8245.85 15049.31,8235.77 "/>
      </g>
     </g>
     <g>
      <path class="fil2 str0" d="M15404.21 8770.66c-1038.91,-410.82 -2214,94.2 -2624.63,1128 -257.31,647.78 -153.3,1349.41 215.76,1884.19 3.23,20.99 14.66,38.42 36.94,51.13 0.59,0.8 1.16,1.62 1.75,2.42l-622.76 907.82c-33.66,49.08 24.71,111.99 80.73,87.02l1091.24 -486.27c104.16,65.33 215.42,122.54 333.95,169.41 1038.91,410.82 2214,-94.2 2624.63,-1128 410.64,-1033.8 -98.69,-2204.9 -1137.61,-2615.72z"/>
      <g>
       <path class="fil2 str0" d="M15206.77 11807.46l-1066.64 0c-298.47,0 -540.42,-241.96 -540.42,-540.43l0 -1343.02c0,-298.47 241.95,-540.42 540.42,-540.42l1066.64 0c298.46,0 540.42,241.95 540.42,540.42l0 1343.02c0,298.47 -241.96,540.43 -540.42,540.43z"/>
       <g>
        <polygon class="fil7" points="13881.37,10171.69 14002.16,10171.69 14002.16,10595.75 13922.02,10595.75 13922.02,10247.51 13834.66,10247.51 "/>
        <path class="fil7" d="M14286.12 10161.03l68.75 34.38 -74.23 144.06c35.96,0 66.52,12.87 91.67,38.63 25.15,25.76 37.77,57.77 37.77,96 0,36.9 -12.9,68.18 -38.78,93.83 -25.87,25.67 -57.01,38.49 -93.54,38.49 -38.28,0 -70.13,-13.29 -95.57,-39.93 -25.44,-26.62 -38.2,-57.11 -38.2,-91.52 0,-13.08 1.95,-26.24 5.91,-39.5 3.96,-13.26 13.05,-33.62 27.24,-61.11l108.98 -213.33zm-10.1 254.84l0 0c-14.98,0 -27.6,5.44 -37.76,16.29 -10.16,10.84 -15.28,24.46 -15.28,40.79 0,16.32 5.34,30.08 16,41.22 10.66,11.13 23.13,16.72 37.34,16.72 14.98,0 27.88,-5.48 38.62,-16.43 10.75,-10.96 16.15,-24.79 16.15,-41.51 0,-16.33 -5.26,-29.95 -15.72,-40.79 -10.45,-10.85 -23.56,-16.29 -39.35,-16.29z"/>
       </g>
       <path class="fil6" d="M15295.76 9383.59l-1244.63 0c-249.31,0 -451.42,217.68 -451.42,486.21l0 89.14 2147.48 0 0 -89.14c0,-268.53 -202.11,-486.21 -451.43,-486.21z"/>
       <g>
        <g>
         <path class="fil8" d="M14859.83 9675.32c0,46.99 -38.09,85.09 -85.09,85.09 -46.99,0 -85.08,-38.1 -85.08,-85.09 0,-47 38.09,-85.09 85.08,-85.09 47,0 85.09,38.09 85.09,85.09z"/>
        </g>
        <g>
         <path class="fil8" d="M15143.46 9675.32c0,46.99 -38.09,85.09 -85.09,85.09 -46.99,0 -85.08,-38.1 -85.08,-85.09 0,-47 38.09,-85.09 85.08,-85.09 47,0 85.09,38.09 85.09,85.09z"/>
        </g>
        <g>
         <path class="fil8" d="M15435.2 9675.32c0,46.99 -38.1,85.09 -85.09,85.09 -47,0 -85.09,-38.1 -85.09,-85.09 0,-47 38.09,-85.09 85.09,-85.09 46.99,0 85.09,38.09 85.09,85.09z"/>
        </g>
       </g>
       <g>
        <path class="fil6" d="M16087.54 10057.55c-109.18,130.82 -221.98,258.03 -336.82,383.19 -114.65,125.36 -231.01,249 -348.95,371.07 -58.46,61.55 -118.07,121.94 -177.76,182.25 -59.84,60.17 -118.63,121.38 -179.44,180.57l-181.24 178.77 -183.61 176.4 -35.57 34.16 -30.92 -36.25c-47.24,-55.38 -92.83,-112.23 -139.33,-168.27 -46.6,-55.96 -91.87,-113.09 -137.47,-169.92 -45.89,-56.58 -90.19,-114.56 -135.19,-171.92 -44.45,-57.86 -88.45,-116.1 -131.52,-175.17 53.22,50.11 105.51,101.05 157.35,152.38 51.29,51.82 103.28,103.03 153.67,155.64 50.69,52.34 101.71,104.4 151.4,157.63 49.79,53.14 100.48,105.48 149.53,159.28l-66.48 -2.09 176.42 -183.6 178.78 -181.22c59.19,-60.81 120.4,-119.6 180.58,-179.43 60.31,-59.69 120.71,-119.3 182.26,-177.76 122.07,-117.92 245.73,-234.28 371.1,-348.91 125.17,-114.84 252.38,-227.63 383.21,-336.8z"/>
       </g>
      </g>
     </g>
    </g>
    <g>
     <g>
      <path class="fil9" d="M10081.84 9890.91c-253.71,-555.23 -992.38,-837.15 -1586.39,-696.43 -594.03,140.72 -1056.64,642.78 -1275.32,1212.71 -188.85,492.19 -219.47,1030.97 -374.65,1534.79 -132.19,429.21 -355.42,830.13 -650.64,1168.56 -269.8,309.31 -601.33,570.55 -808.3,924.99 -268.8,460.33 -289.61,1056.14 -53.6,1534.11 236,477.98 721.71,823.67 1250.62,890.14 554.6,69.68 1128.32,-148.22 1669.43,-8.11 275.04,71.22 525.1,232.09 806.9,268.22 486.55,62.39 961.92,-282.43 1164.57,-729.15 202.63,-446.73 175.31,-967.42 51.61,-1442.1 -134.04,-514.44 -376.32,-1006.72 -408.35,-1537.37 -35.49,-588.03 99.19,-978.92 139.49,-1566.64 35.37,-515.63 432.06,-771.48 74.63,-1553.72z"/>
     </g>
     <g>
      <g>
       <g>
        <path class="fil9" d="M8191.8 20835.36c44.55,184.13 88.83,368.87 132.94,554.11 721.77,240.2 1490.2,378.11 2288.25,396.39 -168.78,-1533.51 -401.55,-3056.2 -775.18,-4558.75 -36.02,-144.85 -1904.96,98.58 -1904.96,98.58l258.95 3509.67z"/>
       </g>
       <g>
        <path class="fil9" d="M9110.68 21605.66c355.94,-1272.68 612.7,-2590.56 474.82,-3904.52 -689.27,55.07 -1376.02,147.28 -2056.79,276.17 -139.08,26.34 -171.21,37.04 -269.06,146.83 -93.68,105.12 -141.22,375.18 -164.38,518.74 -112.55,697.64 -181.09,1388.01 -247.66,2076.44 693.32,406.31 1454.72,708.83 2263.07,886.34z"/>
       </g>
      </g>
     </g>
     <g>
      <path class="fil6" d="M6743.69 19454.74l76.13 268.98c30.45,132.28 178.55,314.28 345.23,314.1 1015.71,-1.01 2031.5,-13.08 3047.04,-36.23 81.36,-1.85 171.03,-6.49 229.61,-52.56 49.88,-39.24 63.97,-98.56 75.54,-153.88 32.86,-157.12 65.74,-314.24 98.6,-471.35l-3872.15 130.94z"/>
     </g>
     <g>
      <path class="fil10" d="M12471.81 18393.52c149.61,154.44 714.46,833.87 810.17,1022.42 103.51,203.92 177.58,430.18 333.36,598.66 30.32,32.78 102.03,1.45 107.25,-45.68 9.62,-86.63 5.54,-171.62 -12.17,-251.92 -10.13,-45.97 59.31,-88.21 100.63,-61.92 30.83,19.63 56.4,48.61 76.52,76.28 125.83,173.06 252.14,292.62 377.98,465.68 53.14,73.09 133.83,184.51 206.22,242.18 34.03,27.13 56.38,-10.73 47.6,-52.54 -7.58,-36.15 -67.29,-165.57 -55.12,-151.82 27.27,30.73 96.4,3.21 80.2,-61.32 -68.45,-273.11 -244.86,-601.96 -367.75,-763.72 -309.04,-406.83 -997.28,-874.24 -1305.18,-1308.93l-399.71 292.63z"/>
     </g>
     <g>
      <path class="fil6" d="M9417.16 15087.42c733.02,1243.27 1767.56,2425.72 2999.46,3428.22 133.13,108.33 231.13,198.2 364.85,159.07 187.26,-54.8 479.07,-229.79 344.56,-411.64 -635.09,-858.63 -1470.74,-1827.98 -1805.67,-2735.32 -151.03,-409.09 -269.99,-820.22 -472.8,-1226.02 -202.84,-405.79 -501.11,-860.93 -924.02,-1111.05l-506.38 1896.74z"/>
     </g>
     <g>
      <path class="fil5" d="M7110.72 19803.33c-219.45,7.28 -393.2,-206.73 -429.19,-423.31 -36,-216.6 203.27,-689 166.28,-915.89 -52.31,-320.88 -405.63,-3167.33 206.74,-4731.04 139.51,-356.24 376.82,-714.79 745.43,-817.22 194.8,-54.15 401.32,-29.28 603.44,-23.98 421.21,11.04 866.32,-60.68 1246.62,120.74 648.26,309.24 776.18,1159.94 818.94,1876.89 35.65,598.13 71.32,1196.25 106.99,1794.36 44.44,745.35 311.63,1424.73 93.57,2026.85 -64.2,177.29 182.24,681.05 62.27,826.53 -133.74,162.19 -495.94,108.75 -705.94,118.41 -866.62,39.86 -1733.24,79.72 -2599.86,119.59l-315.29 28.07z"/>
     </g>
     <path class="fil9" d="M10776.25 14544.94l-125.72 -120.88c-7.17,-6.9 -7.4,-18.3 -0.5,-25.47l1269.32 -1320.37c6.9,-7.17 18.3,-7.39 25.47,-0.5l125.73 120.87c7.18,6.9 7.4,18.3 0.5,25.48l-1269.33 1320.37c-6.89,7.17 -18.3,7.4 -25.47,0.5z"/>
     <g>
      <path class="fil6" d="M8687.32 17794.53c-189.36,162.38 -688.5,430.23 -891.94,574.57 -152.03,107.86 -419.79,2.06 -641.67,-234.87 -153.1,-163.5 -274.69,-494.14 -341.05,-708.08 -125.32,-404.03 -176.31,-965.35 -197.6,-1459.65 -28.09,-652.27 42.16,-1243.07 101.63,-1720.42 59.48,-477.34 397.74,-1121.92 742.65,-1256.77 496.07,-193.94 715.54,12.22 789.61,749.2 53.04,527.7 -65.07,976.76 -142.37,1871.24 -34.98,404.77 -73.62,1129.86 -73.62,1129.86l654.36 1054.92z"/>
     </g>
     <g>
      <path class="fil10" d="M9536.14 15572.44c151.95,-151.46 729.51,-818.82 830.31,-1004.67 109.02,-201.03 190.25,-424.5 348.77,-589.81 30.86,-32.17 99.46,-0.32 102.68,46.46 5.89,85.96 -1.48,170.18 -21.95,249.6 -11.72,45.45 154.89,93.44 196.2,67.84 30.83,-19.12 546.59,-559.45 559.01,-572.94 27.81,-30.17 94.04,-2.14 75.69,61.67 -77.62,269.97 -262.7,594.04 -388.9,753.04 -317.39,399.93 -1006.69,855.73 -1324.07,1283.29l-377.74 -294.48z"/>
     </g>
     <g>
      <path class="fil6" d="M7775.75 18357.15c245.1,-46.35 767.48,-386.9 991.82,-656.22 353.83,-424.8 1479.59,-1802.57 1507.08,-2030.95 11.66,-96.98 -305.03,-373.8 -429.16,-499.11 -74.02,-74.74 -673.8,634.72 -992.85,914.52 -98.92,86.74 -678.1,544.82 -953.97,738.33l-122.92 1533.43z"/>
     </g>
     <g>
      <g>
       <path class="fil2" d="M7599.86 16851.83c284.34,-59.51 538.49,-207.44 769.88,-376.35 231.29,-171.27 447.3,-362.84 654.73,-563.01 209.21,-198.47 409.88,-405.95 609.98,-613.93l75.13 -77.93 18.78 -19.49c6.29,-6.66 14.3,-14.04 22.75,-19.26 16.99,-11.1 37.07,-16.89 57.16,-17.35 20.11,-0.17 40.28,5.09 57.36,15.75 17.86,10.99 28.86,25.77 41.81,37.94l76.07 77.08 301.81 310.85 -313.98 -298.56 -77.87 -75.26c-13.42,-12.26 -25.24,-26.54 -38.71,-34 -13.81,-8.21 -29.95,-11.98 -45.93,-11.53 -15.97,0.77 -31.72,5.69 -44.8,14.7 -12.79,8.12 -23.6,22.93 -36.41,36l-73.43 79.68c-196.23,212.08 -397.43,419.7 -605.36,620.77 -210.05,198.59 -426.85,391.63 -663.35,559.5 -119.08,82.5 -242.31,159.7 -373.08,222.67 -131.2,61.55 -269.73,108.96 -412.54,131.73z"/>
      </g>
      <g>
       <path class="fil2" d="M7981.23 16716.85c-73.77,-31.29 -146.02,-59.64 -219.74,-86.28 -73.75,-26.6 -147.06,-51.43 -224.42,-72.14 40.16,-4.26 80.82,-0.15 120.3,7.14 39.64,7.17 78.28,18.53 116.13,31.86 37.59,14.04 74.48,30.07 109.58,49.71 35.07,19.44 69.02,41.78 98.15,69.71z"/>
      </g>
     </g>
     <g>
      <g>
       <g>
        <path class="fil10" d="M8287.64 12832.61c70.72,-294.44 173.72,-727.98 222.27,-926.79 19.95,-81.74 39.91,-163.5 62.63,-244.51 5.12,-18.32 11.25,-38.07 23.91,-49.64 10.57,-9.69 23.6,-11.59 35.75,-12.02 120,-4.23 213.52,96.41 319.11,152.04 129.13,68 280.5,69.19 411.98,131.15 15.82,7.46 32.78,17.83 37.18,38.96 2.54,12.25 0.31,26.02 -1.93,39.24 -40.52,239.03 -77.39,893.9 -101.31,1197.89 -13.36,169.84 -316.08,267.2 -622.4,181.84 -368.67,-102.73 -415.34,-391.01 -387.19,-508.16z"/>
        <g>
         <path class="fil11" d="M8596.45 11611.67c10.57,-9.69 23.6,-11.59 35.75,-12.02 119.99,-4.23 213.52,96.41 319.12,152.04 129.13,68.01 280.49,69.19 411.97,131.15 15.82,7.46 32.78,17.83 37.18,38.96 2.54,12.25 0.31,26.02 -1.93,39.24 -22.64,133.62 -45.29,267.22 -67.95,400.85 -140.75,62.09 -286.12,89.38 -423.63,63.52 -188.75,-35.5 -356.95,-184.47 -425.48,-403.17 9.47,-38.79 18.95,-77.61 28.42,-116.42 19.96,-81.74 39.92,-163.5 62.64,-244.51 5.12,-18.32 11.25,-38.07 23.91,-49.64z"/>
        </g>
       </g>
       <g>
        <path class="fil10" d="M8297.51 11407.13c-174.95,-22.08 -336.28,-118.52 -367.08,-249.79 -30.8,-131.29 102.53,-283.56 280.93,-292.81l86.15 542.6z"/>
       </g>
       <g>
        <path class="fil10" d="M8281.15 11419.61c196.04,653.6 662.07,728.6 1151.39,875.34 86.46,25.92 230.21,34.83 321.2,23.03 223.41,-28.95 320.4,-244.64 360.85,-426.65 70.43,-316.82 102.25,-639.34 94.86,-961.24 -5.09,-221.54 -30.36,-448.04 -143.69,-649.23 -113.32,-201.18 -329.11,-374.79 -595.92,-413.03 -332.28,-47.6 -659.4,121.1 -876.85,332.2 -320.88,311.51 -479,749.62 -335.8,1139.5l23.96 80.08z"/>
       </g>
       <g>
        <path class="fil10" d="M10208.67 10919.57c4.06,204.06 11.58,170.11 33.68,286.26 2.38,12.58 29.63,111.67 99.51,157.13 55.09,35.83 70.11,118.95 23.18,165.7 -26.11,26 -52.04,37.79 -89.1,45.04 -52.37,10.24 -104.08,-2.88 -134.88,-45.77l67.61 -608.36z"/>
       </g>
      </g>
      <g>
       <path class="fil9" d="M7794.54 10930.61c492,-55.67 943.43,-239.88 1351.53,-459.56 190.57,-102.57 377.26,-216.15 506.53,-367.49 70.41,-82.43 121.63,-194.23 54.86,-281.33 -72.67,-94.81 -238.83,-104.63 -375.92,-94.12 -99.31,7.62 -197.87,19.95 -295.02,36.95 -163.99,28.68 -325.89,71.38 -465.07,144.53 -159.89,84.06 -282.86,204.37 -401.7,323.82 -121.84,122.45 -246.94,255.9 -259.85,413.38l-115.36 283.82z"/>
      </g>
      <g>
       <g>
        <path class="fil9" d="M9492.99 10575.46c-6.77,5.48 1.78,14.05 12.01,14.69 10.25,0.62 19.95,-3.56 28.87,-7.36 108.74,-46.2 247.19,-57.11 363.69,-28.62 17.91,4.36 36.12,9.69 55.43,8.57 19.31,-1.12 39.79,-11.49 39.18,-24.5 -0.25,-5.59 -4.28,-10.66 -8.94,-15.16 -19.7,-18.96 -51.42,-30.64 -84.01,-38.44 -105.17,-25.17 -230.16,-14.02 -326.63,29.16 -36.1,16.15 -69.54,37.79 -82.91,65.35l3.31 -3.69z"/>
       </g>
       <g>
        <path class="fil12" d="M8976.25 11403.79c-2.38,161.16 135.65,292.84 308.28,294.11 172.63,1.27 314.5,-128.35 316.89,-289.51 2.36,-161.17 -135.67,-292.84 -308.3,-294.1 -172.63,-1.28 -314.51,128.35 -316.87,289.5z"/>
       </g>
       <path class="fil9" d="M9727.37 10901.34c6.14,78.78 49.09,140.65 95.93,138.22 46.83,-2.44 79.82,-68.27 73.69,-147.05 -6.15,-78.76 -49.1,-140.63 -95.94,-138.19 -46.83,2.43 -79.82,68.26 -73.68,147.02z"/>
      </g>
     </g>
     <g>
      <g>
       <path class="fil13" d="M8164.39 12905.46c109.58,267.37 351.38,462.62 641.27,495.09 305.36,34.19 608.01,-153.16 645.36,-470.45 5.57,-47.39 -44.53,-88.2 -88.2,-88.2 -52.31,0 -82.6,40.68 -88.19,88.2 -26.27,223.15 -277.51,323.52 -474.86,293.03 -202.33,-31.25 -387.37,-174.42 -465.3,-364.56 -18.04,-44.04 -58.61,-75.31 -108.49,-61.6 -41.69,11.46 -79.77,64.15 -61.59,108.49z"/>
      </g>
     </g>
    </g>
   </g>
  </g>
 </g>
</svg>
